<svg xmlns="http://www.w3.org/2000/svg" xmlns:xlink="http://www.w3.org/1999/xlink" width="324" zoomAndPan="magnify" viewBox="0 0 242.87999 45.749998" height="61" preserveAspectRatio="xMidYMid meet" version="1.0"><defs><clipPath id="48b1d589e3"><path d="M 0.601562 0 L 241.535156 0 L 241.535156 45 L 0.601562 45 Z M 0.601562 0 " clip-rule="nonzero"/></clipPath></defs><g clip-path="url(#48b1d589e3)"><path fill="#ffffff" d="M 232.085938 4.054688 C 230.710938 3.570312 228.882812 3.390625 227.027344 3.230469 C 227.152344 3.136719 227.199219 2.988281 227.1875 2.800781 C 226.144531 2.765625 225.707031 3.125 224.582031 3.035156 C 224.929688 2.8125 224.648438 2.628906 224.089844 2.71875 C 224.414062 2.441406 225.421875 2.609375 225.394531 2.921875 C 225.601562 2.890625 225.558594 2.707031 225.394531 2.707031 C 228.046875 2.851562 230.78125 2.40625 233.054688 2.863281 C 231.71875 1.9375 227.390625 1.957031 225.386719 1.417969 C 225.511719 1.167969 226.390625 1.304688 226.203125 1.625 C 226.417969 1.515625 226.808594 1.519531 226.851562 1.296875 C 228.617188 1.648438 230.628906 1.78125 232.394531 1.6875 C 234.40625 2.460938 237.125 2.765625 238.277344 4.121094 C 238.347656 4.992188 238.117188 5.457031 238.292969 6.164062 C 237.773438 7.074219 237.199219 7.949219 236.191406 8.542969 C 236.898438 9.425781 237.316406 10.09375 237.351562 11.007812 C 237.136719 11.183594 236.152344 11.402344 236.867188 11.550781 C 236.527344 11.6875 236.179688 11.816406 235.890625 11.988281 C 235.972656 12.269531 236.792969 12.34375 236.382812 12.628906 C 235.820312 12.71875 235.757812 12.472656 235.242188 12.527344 C 235.367188 13.160156 236.5625 13.421875 236.886719 14.238281 C 237.28125 15.238281 236.542969 16.441406 236.585938 17.679688 C 234.992188 17.691406 235.558594 19.273438 233.335938 19.101562 C 235.011719 19.789062 237.460938 20.496094 239.539062 20.5625 C 239.914062 20.996094 240.449219 22.152344 239.554688 22.496094 C 239.742188 22.691406 239.980469 22.855469 240.210938 23.03125 C 239.867188 23.296875 238.546875 23.042969 239.074219 23.574219 C 237.445312 23.84375 235.339844 23.457031 234.191406 24.363281 C 234.210938 24.640625 234.800781 24.53125 235.007812 24.679688 C 235.058594 24.953125 234.707031 25.308594 234.851562 25.542969 C 235.765625 25.765625 235.3125 25.949219 236.160156 25.960938 C 235.957031 26.261719 235.648438 26.488281 235.023438 26.507812 C 235.519531 26.785156 236.433594 26.785156 236.65625 27.25 C 234.800781 27.761719 233.988281 27.410156 231.933594 27.5 C 234.878906 28.042969 237.515625 28.796875 239.933594 29.699219 C 239.964844 30.167969 239.996094 30.636719 239.613281 30.5625 C 239.921875 30.898438 240.164062 30.648438 240.425781 30.449219 C 240.605469 31.375 240.695312 31.941406 241.582031 32.484375 C 241.261719 33.25 240.125 32.945312 239.144531 33.144531 C 239.289062 33.660156 239.511719 34.125 240.289062 34.210938 C 239.78125 35.191406 237.007812 35.054688 236.0625 35.425781 C 236.4375 36.066406 237.457031 35.535156 238.34375 35.410156 C 238.121094 35.847656 238.703125 35.746094 238.675781 36.050781 C 235.777344 36.160156 235.515625 37.039062 232.488281 36.742188 C 232.410156 39.542969 230.269531 41.007812 229.113281 43.113281 C 227.699219 42.851562 227.074219 43.324219 226.347656 43.777344 C 226.277344 44.078125 227.234375 43.683594 227.164062 43.984375 C 225.890625 44.363281 224.101562 44.300781 222.28125 44.453125 C 220.578125 44.59375 219.140625 44.597656 218.042969 44.164062 C 209.65625 45.230469 203.082031 44.386719 194.257812 44.875 C 194.113281 44.53125 194.792969 44.726562 194.742188 44.445312 C 192.03125 44.433594 187.277344 45.238281 184.640625 44.625 C 184.117188 44.726562 184.410156 44.277344 184.148438 44.199219 C 182.089844 44.261719 180.234375 44.953125 178.9375 44.238281 C 176.003906 44.074219 172.757812 44.953125 170.625 44.300781 C 162.0625 44.449219 155.164062 44.835938 147.972656 44.039062 C 143.878906 43.839844 140.535156 44.125 136.402344 43.910156 C 136.980469 43.394531 138.347656 43.386719 139.492188 43.242188 C 137.988281 43.0625 135.535156 43.027344 133.464844 43.179688 C 126.546875 43.679688 119.339844 43.515625 112.28125 43.230469 C 111.957031 42.980469 112.324219 43.109375 112.445312 42.90625 C 111.054688 42.558594 109.601562 43.039062 108.371094 43.148438 C 108.066406 42.949219 108.351562 42.878906 108.367188 42.613281 C 106.972656 42.472656 107.382812 42.9375 106.578125 43.054688 C 105.820312 43.15625 106.800781 42.773438 106.25 42.734375 C 105.902344 42.6875 105.941406 42.890625 105.925781 43.058594 C 104.058594 42.910156 102.566406 42.816406 100.386719 42.992188 C 99.714844 43.050781 100.511719 42.722656 100.058594 42.566406 C 97.316406 42.527344 93.429688 43.152344 90.445312 42.851562 C 89.03125 42.710938 88.132812 42.871094 86.535156 42.882812 C 85.167969 42.894531 83.828125 42.328125 82.292969 42.160156 C 81.03125 42.027344 79.152344 42.464844 77.242188 42.199219 C 77.277344 42.042969 77.726562 42.15625 77.726562 41.980469 C 72.1875 42.171875 65.382812 42.199219 60.136719 42.757812 C 53.804688 42.34375 46.480469 43.386719 40.75 43.328125 C 40.890625 43.167969 41.160156 43.09375 41.5625 43.109375 C 35.960938 42.675781 27.355469 42.601562 20.21875 42.839844 C 19.539062 42.898438 19.523438 43.386719 18.59375 43.277344 C 18.160156 43.894531 16.847656 43.941406 15.992188 44.160156 C 15.839844 44.199219 15.355469 44.480469 15.175781 44.488281 C 12.574219 44.597656 13.351562 42.613281 11.898438 41.609375 C 11.128906 41.925781 10.332031 42.046875 9.617188 41.625 C 9.667969 40.945312 10.859375 41.007812 11.238281 40.539062 C 11.027344 40.386719 10.324219 40.195312 10.261719 40.546875 C 9.890625 40.332031 9.898438 39.988281 10.257812 39.792969 C 9.679688 39.738281 9.859375 40.175781 9.28125 40.125 C 9.210938 39.898438 9.390625 39.835938 9.441406 39.691406 C 8.921875 39.632812 8.9375 39.898438 8.625 39.699219 C 8.582031 39.027344 8.664062 38.4375 9.269531 38.1875 C 5.992188 37.503906 3.335938 35.757812 0.601562 34.382812 C 0.671875 33.71875 1.5 33.542969 1.566406 32.871094 C 3.5625 32.476562 4.847656 32.277344 7.265625 32.183594 C 7.652344 31.96875 6.964844 31.582031 7.421875 31.320312 C 8.105469 31.421875 9.0625 31.390625 9.539062 30.875 C 8.941406 30.722656 8.644531 30.84375 7.90625 30.671875 C 8.015625 30.421875 8.449219 30.378906 8.554688 30.128906 C 7.519531 29.515625 9.167969 28.554688 8.539062 27.871094 C 8.816406 27.621094 9.457031 28.039062 10.003906 27.96875 C 9.148438 27.636719 10.878906 27.777344 11.144531 27.53125 C 11.074219 27.304688 9.78125 27.773438 10.164062 27.320312 C 8.535156 27.492188 9.015625 27.253906 7.722656 27.339844 C 7.917969 25.707031 10.425781 25.074219 13.078125 24.289062 C 12.703125 23.964844 12.089844 23.339844 12.414062 22.898438 C 12.191406 22.691406 11.5 23.082031 11.113281 23.121094 C 11.113281 22.800781 11.53125 22.753906 11.59375 22.472656 C 11.207031 22.214844 11.292969 22.636719 10.78125 22.585938 C 11.261719 21.953125 12.144531 22.15625 12.894531 21.816406 C 12.152344 21.410156 11.378906 21.800781 10.449219 21.835938 C 10.519531 21.667969 10.960938 21.738281 10.773438 21.40625 C 10.308594 21.390625 10.457031 21.769531 9.796875 21.625 C 9.714844 21.289062 10.296875 21.378906 10.121094 20.980469 C 9.28125 21.105469 8.253906 21.207031 7.511719 21.105469 C 7.511719 20.710938 8.082031 20.691406 8.324219 20.453125 C 7.785156 20.28125 7.402344 20.566406 6.695312 20.574219 C 6.628906 20.101562 6.625 19.605469 7.828125 19.492188 C 7.773438 19.242188 7.851562 19.078125 7.988281 18.949219 C 7.304688 18.648438 7.003906 18.832031 5.542969 18.753906 C 5.28125 18.273438 6.21875 17.910156 6.019531 17.566406 C 5.574219 16.78125 4.664062 16.929688 3.402344 16.941406 C 3.925781 16.507812 3.683594 16.226562 4.210938 15.859375 C 3.398438 15.539062 3.996094 15.140625 4.039062 14.464844 C 4.332031 14.449219 4.382812 14.59375 4.691406 14.566406 C 5.0625 13.414062 7.910156 13.875 8.261719 12.714844 C 7.507812 12.5 7.972656 11.464844 7.273438 11.214844 C 8.179688 9.804688 7.363281 7.277344 10.339844 7.210938 C 10.164062 6.75 9.632812 6.53125 8.703125 6.578125 C 8.851562 6.085938 8.355469 6.019531 7.722656 6.046875 C 7.984375 5.5 8.082031 5.460938 7.390625 5.191406 C 8.132812 4.246094 7.9375 3.289062 8.671875 1.957031 C 15.402344 2.332031 24.742188 2.3125 30.675781 2.652344 C 30.832031 2.648438 30.800781 2.519531 30.835938 2.433594 C 32.128906 3.03125 34.125 2.683594 35.398438 2.292969 C 35.3125 2.378906 35.230469 2.46875 35.238281 2.617188 C 35.949219 2.6875 36.152344 2.429688 36.863281 2.5 C 38.265625 2.726562 43.460938 2.050781 46.800781 1.996094 C 50.464844 1.933594 54.28125 1.429688 56.082031 0.957031 C 56.664062 1.878906 58.527344 1.523438 60.484375 1.460938 C 60.980469 1.417969 60.761719 1.851562 61.136719 1.886719 C 62.136719 1.40625 65.039062 2.144531 66.1875 1.527344 C 66.285156 1.246094 66.121094 1.140625 65.699219 1.207031 C 66.851562 0.828125 68.300781 1.246094 69.605469 0.964844 C 69.5 0.855469 69.230469 0.855469 69.277344 0.640625 C 71.507812 0.761719 73.871094 1.117188 75.3125 1.671875 C 76.105469 1.453125 76.597656 1.785156 77.273438 1.875 C 79.207031 2.128906 82.132812 1.632812 84.4375 1.605469 C 91.542969 1.515625 98.523438 2.105469 105.132812 1.664062 C 105.242188 1.773438 105.511719 1.773438 105.460938 1.988281 C 110.621094 1.902344 114.730469 1.515625 119.796875 1.558594 C 119.84375 1.273438 119.457031 1.28125 119.140625 1.238281 C 120.4375 1.125 121.660156 1.523438 122.730469 1.75 C 123.859375 0.996094 124.734375 1.851562 126.316406 1.832031 C 126.410156 2.070312 126.007812 1.988281 125.992188 2.15625 C 131.292969 2.527344 136.03125 0.851562 141.464844 1.71875 C 141.675781 1.535156 142 1.421875 142.441406 1.390625 C 142.289062 2.078125 140.78125 1.878906 140.003906 2.160156 C 142.5 2.175781 145.515625 1.824219 148.476562 2.417969 C 149.507812 1.410156 152.460938 2.023438 154.828125 1.726562 C 154.875 1.902344 154.675781 1.914062 154.667969 2.050781 C 155.433594 2.039062 155.902344 2.234375 156.625 2.25 C 156.632812 1.886719 156.019531 1.9375 155.480469 1.9375 C 156.78125 1.40625 158.605469 2.320312 159.222656 1.261719 C 160.105469 1.390625 160.699219 1.390625 161.175781 1.03125 C 161.222656 1.207031 161.023438 1.21875 161.015625 1.359375 C 165.527344 1.957031 170.660156 1.882812 176.5 1.890625 C 176.421875 1.472656 175.375 1.707031 175.03125 1.472656 C 180.5625 0.933594 186.804688 2.523438 192.460938 1.339844 C 191.652344 1.003906 189.824219 1.070312 189.199219 0.933594 C 188.863281 0.875 188.132812 1.078125 188.0625 0.835938 C 189.921875 0.878906 190.558594 0.558594 192.132812 0.589844 C 192.382812 0.46875 192.46875 0.238281 192.945312 0.261719 C 192.59375 0.488281 193.027344 0.570312 192.949219 0.90625 C 193.65625 1.007812 193.851562 0.78125 194.253906 0.683594 C 195.148438 1.15625 195.972656 0.96875 197.023438 0.660156 C 202.679688 1.707031 209.902344 0.785156 216.253906 1.164062 C 214.71875 1.695312 212.441406 1.160156 211.042969 1.847656 C 211.324219 2.125 212.660156 1.699219 212.351562 2.375 C 213.050781 2.4375 213.011719 2.019531 213.652344 2.042969 C 213.863281 2.183594 213.863281 2.441406 213.65625 2.582031 C 214.980469 2.320312 217.433594 2.371094 219.035156 2.972656 C 218.546875 2.976562 218.058594 2.980469 217.570312 2.984375 C 220.957031 3.242188 226.1875 3.863281 230.121094 3.75 C 230.476562 4.300781 230.8125 3.765625 232.085938 4.054688 Z M 114.914062 2.238281 C 115.722656 2.183594 116.574219 2.308594 115.894531 2.660156 C 116.558594 2.699219 116.726562 2.417969 117.195312 2.332031 C 116.507812 2.328125 116.808594 2.089844 117.027344 1.902344 C 116.402344 2.296875 115.011719 1.53125 114.914062 2.238281 Z M 194.101562 1.542969 C 193.894531 1.519531 193.765625 1.375 193.773438 1.648438 C 194.609375 1.632812 195.402344 1.535156 195.894531 1.632812 C 195.84375 1.179688 194.480469 1.257812 194.101562 1.542969 Z M 149.148438 4.242188 C 148.992188 4.636719 150.058594 4.464844 149.960938 4.234375 C 149.558594 4.226562 149.457031 4.039062 149.148438 4.242188 Z M 150.289062 4.449219 C 150.835938 4.375 151.804688 4.574219 152.082031 4.328125 C 151.210938 4.277344 150.847656 3.980469 150.289062 4.449219 Z M 126.046875 9.578125 C 126.515625 9.898438 127.433594 9.496094 127.519531 9.886719 C 128.003906 9.890625 128.34375 9.566406 128.660156 9.773438 C 128.65625 9.628906 128.65625 9.488281 128.65625 9.34375 C 127.847656 9.460938 126.734375 9.378906 126.046875 9.578125 Z M 202.347656 14.816406 C 202.832031 14.707031 203.53125 14.726562 203.644531 14.375 C 203.007812 14.386719 202.214844 14.304688 202.347656 14.816406 Z M 205.933594 15.542969 C 208.191406 15.328125 204.960938 15.230469 204.632812 15.550781 C 205.175781 15.527344 205.597656 15.574219 205.933594 15.542969 Z M 58.195312 22.554688 C 58.324219 22.644531 59.191406 22.660156 59.171875 22.332031 C 58.738281 22.339844 58.210938 22.28125 58.195312 22.554688 Z M 106.796875 28.429688 C 107.003906 28.03125 105.828125 28.011719 105.652344 28.226562 C 106.292969 28.117188 106.070312 28.59375 106.796875 28.429688 Z M 109.402344 28.410156 C 110.851562 28.597656 112.058594 28.40625 113.800781 28.484375 C 112.910156 28.332031 110.304688 28 109.402344 28.410156 Z M 117.878906 28.457031 C 117.621094 28.449219 117.3125 28.476562 117.386719 28.246094 C 116.402344 28.472656 114.902344 28.230469 114.128906 28.269531 C 115.917969 28.625 116.769531 28.703125 117.878906 28.457031 Z M 100.769531 29.011719 C 99.664062 29.1875 98.101562 28.734375 97.675781 29.144531 C 99.585938 29.433594 103.808594 29.546875 105.984375 29.082031 C 104.265625 28.972656 103.210938 28.71875 101.585938 28.898438 C 102.851562 29.289062 100.453125 28.765625 100.445312 28.800781 C 100.628906 28.824219 100.699219 28.917969 100.769531 29.011719 Z M 119.019531 28.878906 C 119.402344 28.875 119.777344 28.871094 120.160156 28.867188 C 120.226562 28.4375 119.054688 28.699219 119.019531 28.878906 Z M 106.476562 29.078125 C 106.375 29.085938 106.285156 29.097656 106.3125 29.1875 C 107.027344 29.238281 109.246094 29.097656 107.453125 29.070312 C 107.113281 28.835938 106.925781 29.171875 106.636719 28.96875 C 106.625 28.902344 106.609375 28.84375 106.472656 28.863281 C 106.472656 28.933594 106.472656 29.007812 106.476562 29.078125 Z M 97.195312 29.792969 C 97.027344 30.007812 96.585938 30.042969 96.382812 30.230469 C 99.929688 30.394531 105.980469 30.25 110.066406 30.125 C 106.449219 29.546875 101.472656 30.160156 97.195312 29.792969 Z M 214.21875 34.082031 C 215.894531 34.765625 218.324219 35.015625 220.414062 34.898438 C 218.28125 34.800781 215.933594 33.746094 214.21875 34.082031 Z M 207.058594 35.210938 C 207.582031 35.535156 208.964844 35.464844 209.5 35.195312 C 209.457031 35.441406 209.542969 35.597656 209.828125 35.621094 C 210.109375 35.398438 209.707031 35.414062 209.988281 35.1875 C 209.085938 34.765625 208.132812 34.984375 207.058594 35.210938 Z M 204.125 35.339844 C 204.777344 35.300781 205.03125 35.527344 205.753906 35.4375 C 205.699219 34.886719 204.136719 35.117188 204.125 35.339844 Z M 218.308594 36.203125 C 218.839844 36.292969 219.320312 36.273438 220.261719 36.296875 C 220.246094 35.800781 218.851562 36.113281 218.308594 36.203125 Z M 73.160156 41.15625 C 72.757812 41.339844 71.578125 40.960938 71.042969 41.28125 C 71.40625 41.605469 72.921875 41.542969 73.160156 41.15625 Z M 144.046875 41.703125 C 143.449219 41.789062 143.140625 41.445312 142.742188 41.714844 C 143.347656 42.203125 144.707031 42.050781 145.839844 42.011719 C 147.667969 41.957031 149.394531 41.683594 151.214844 41.867188 C 149.480469 41.277344 145.398438 41.605469 144.046875 41.703125 Z M 153.820312 41.738281 C 154.539062 41.867188 156.21875 41.75 157.242188 41.496094 C 156.046875 41.625 153.988281 41.09375 153.820312 41.738281 Z M 163.761719 41.449219 C 163.726562 41.925781 162.167969 41.414062 162.132812 41.890625 C 162.949219 42.0625 163.53125 41.914062 164.253906 41.769531 C 164.332031 42.050781 164.382812 42.128906 164.746094 42.410156 C 168.136719 41.464844 171.421875 42.96875 174.683594 42.011719 C 171.09375 41.546875 167.34375 42.066406 163.761719 41.449219 Z M 133.78125 42.101562 C 132.953125 42.105469 131.898438 41.644531 131.503906 42.335938 C 134.4375 42.507812 137.347656 42.425781 140.296875 41.839844 C 138.179688 41.832031 135.832031 42.097656 133.78125 42.101562 Z M 133.78125 42.101562 " fill-opacity="1" fill-rule="evenodd"/></g></svg>