<?xml version="1.0" encoding="UTF-8"?>
<svg xmlns="http://www.w3.org/2000/svg" xmlns:xlink="http://www.w3.org/1999/xlink" width="60px" height="69px" viewBox="0 0 60 69" version="1.1">
<g id="surface1">
<path style=" stroke:none;fill-rule:nonzero;fill:rgb(91.372549%,79.215686%,19.607843%);fill-opacity:1;" d="M 5.023438 61.476562 L 0 0.488281 L 60 0.613281 L 54.6875 61.476562 L 30.226562 68.511719 Z M 5.023438 61.476562 "/>
<path style=" stroke:none;fill-rule:nonzero;fill:rgb(100%,87.058824%,14.509804%);fill-opacity:1;" d="M 30.226562 62.621094 L 30.226562 6.296875 L 54.933594 6.378906 L 50.527344 56.769531 Z M 30.226562 62.621094 "/>
<path style=" stroke:none;fill-rule:nonzero;fill:rgb(100%,100%,100%);fill-opacity:1;" d="M 27.582031 12.984375 L 21.050781 12.984375 L 21.050781 50.472656 L 15.964844 49.511719 L 15.964844 44.464844 L 9.917969 43.503906 L 9.917969 54.796875 L 27.582031 59.363281 Z M 32.480469 12.984375 L 50.5625 12.984375 L 49.355469 20.171875 L 39.382812 20.171875 L 39.382812 31.960938 L 49.355469 31.960938 L 48.144531 55.761719 L 32.480469 59.363281 L 32.480469 51.914062 L 43.0625 48.308594 L 43.675781 38.457031 L 32.480469 40.066406 Z M 32.480469 12.984375 "/>
</g>
</svg>
