<svg xmlns="http://www.w3.org/2000/svg" xmlns:xlink="http://www.w3.org/1999/xlink" width="312" zoomAndPan="magnify" viewBox="0 0 234 215.249992" height="287" preserveAspectRatio="xMidYMid meet" version="1.0"><defs><clipPath id="68314ad913"><path d="M 87 89 L 122 89 L 122 134 L 87 134 Z M 87 89 " clip-rule="nonzero"/></clipPath><clipPath id="5a48d16d91"><path d="M 75.417969 118.617188 L 100.460938 82.320312 L 130.605469 103.117188 L 105.5625 139.414062 Z M 75.417969 118.617188 " clip-rule="nonzero"/></clipPath><clipPath id="3b5dd521b4"><path d="M 75.417969 118.617188 L 100.460938 82.320312 L 130.605469 103.117188 L 105.5625 139.414062 Z M 75.417969 118.617188 " clip-rule="nonzero"/></clipPath><clipPath id="a98ce62d58"><path d="M 75.417969 118.617188 L 100.460938 82.320312 L 130.605469 103.117188 L 105.5625 139.414062 Z M 75.417969 118.617188 " clip-rule="nonzero"/></clipPath><clipPath id="0a31b223d2"><path d="M 89 91 L 113 91 L 113 127 L 89 127 Z M 89 91 " clip-rule="nonzero"/></clipPath><clipPath id="a93564f182"><path d="M 75.417969 118.617188 L 100.460938 82.320312 L 130.605469 103.117188 L 105.5625 139.414062 Z M 75.417969 118.617188 " clip-rule="nonzero"/></clipPath><clipPath id="189735f684"><path d="M 75.417969 118.617188 L 100.460938 82.320312 L 130.605469 103.117188 L 105.5625 139.414062 Z M 75.417969 118.617188 " clip-rule="nonzero"/></clipPath><clipPath id="77d03638b5"><path d="M 75.417969 118.617188 L 100.460938 82.320312 L 130.605469 103.117188 L 105.5625 139.414062 Z M 75.417969 118.617188 " clip-rule="nonzero"/></clipPath><clipPath id="040606f7e2"><path d="M 112 81 L 150 81 L 150 122 L 112 122 Z M 112 81 " clip-rule="nonzero"/></clipPath><clipPath id="0efff374c9"><path d="M 105.921875 106.925781 L 130.972656 75.28125 L 157.925781 96.621094 L 132.875 128.265625 Z M 105.921875 106.925781 " clip-rule="nonzero"/></clipPath><clipPath id="f0e0571da3"><path d="M 105.921875 106.925781 L 130.972656 75.28125 L 157.925781 96.621094 L 132.875 128.265625 Z M 105.921875 106.925781 " clip-rule="nonzero"/></clipPath><clipPath id="e8b616f14b"><path d="M 105.921875 106.925781 L 130.972656 75.28125 L 157.925781 96.621094 L 132.875 128.265625 Z M 105.921875 106.925781 " clip-rule="nonzero"/></clipPath><clipPath id="103fc0b6ef"><path d="M 114 82 L 141 82 L 141 115 L 114 115 Z M 114 82 " clip-rule="nonzero"/></clipPath><clipPath id="98fcc94e8b"><path d="M 105.921875 106.925781 L 130.972656 75.28125 L 157.925781 96.621094 L 132.875 128.265625 Z M 105.921875 106.925781 " clip-rule="nonzero"/></clipPath><clipPath id="150edbf592"><path d="M 105.921875 106.925781 L 130.972656 75.28125 L 157.925781 96.621094 L 132.875 128.265625 Z M 105.921875 106.925781 " clip-rule="nonzero"/></clipPath><clipPath id="51949a9261"><path d="M 105.921875 106.925781 L 130.972656 75.28125 L 157.925781 96.621094 L 132.875 128.265625 Z M 105.921875 106.925781 " clip-rule="nonzero"/></clipPath></defs><g clip-path="url(#68314ad913)"><g clip-path="url(#5a48d16d91)"><g clip-path="url(#3b5dd521b4)"><g clip-path="url(#a98ce62d58)"><path fill="#000000" d="M 119 119.785156 C 118.503906 120.503906 117.957031 121.183594 117.359375 121.816406 C 116.363281 122.804688 115.261719 123.652344 114.046875 124.359375 C 112.28125 125.441406 111.066406 126.144531 110.457031 126.453125 L 96.398438 133.09375 L 88.578125 127.664062 L 87.539062 126.949219 L 89.785156 97.914062 L 104.941406 90.722656 C 107.855469 89.339844 110.082031 89.144531 111.75 90.121094 C 111.839844 90.183594 111.9375 90.25 112.035156 90.320312 L 119.449219 95.433594 C 120.964844 96.480469 121.644531 98.226562 121.460938 100.617188 C 121.277344 102.621094 120.632812 104.464844 119.523438 106.144531 C 119.449219 106.253906 119.359375 106.382812 119.273438 106.507812 L 118.984375 106.925781 L 119.800781 107.488281 C 119.960938 107.601562 120.109375 107.730469 120.25 107.871094 C 121.335938 108.949219 121.796875 110.613281 121.621094 112.808594 C 121.480469 114.492188 121.035156 116.089844 120.28125 117.601562 C 119.910156 118.363281 119.484375 119.089844 119 119.785156 Z M 119 119.785156 " fill-opacity="1" fill-rule="nonzero"/></g></g></g></g><g clip-path="url(#0a31b223d2)"><g clip-path="url(#a93564f182)"><g clip-path="url(#189735f684)"><g clip-path="url(#77d03638b5)"><path fill="#ffffff" d="M 111.761719 103.820312 C 112.515625 104.566406 112.824219 105.808594 112.6875 107.542969 C 112.558594 109.03125 112.164062 110.445312 111.496094 111.785156 C 110.8125 113.203125 109.929688 114.484375 108.84375 115.628906 C 107.949219 116.515625 106.953125 117.273438 105.859375 117.902344 C 104.117188 118.972656 102.960938 119.640625 102.394531 119.902344 L 89.148438 126.179688 L 91.242188 98.914062 L 105.597656 92.105469 C 107.992188 90.96875 109.78125 90.746094 110.960938 91.4375 C 112.144531 92.132812 112.664062 93.445312 112.519531 95.371094 C 112.355469 97.113281 111.789062 98.710938 110.824219 100.164062 C 110.046875 101.339844 109.109375 102.371094 108.007812 103.253906 C 109.757812 102.882812 111.011719 103.074219 111.761719 103.820312 Z M 104.101562 112.703125 C 104.671875 111.980469 104.996094 111.160156 105.078125 110.242188 C 105.140625 109.4375 104.917969 108.917969 104.421875 108.683594 C 103.925781 108.445312 103.003906 108.648438 101.660156 109.285156 L 97.765625 111.132812 L 97.339844 116.65625 L 101.25 114.800781 C 102.367188 114.332031 103.320312 113.632812 104.101562 112.703125 M 98.550781 100.765625 L 98.164062 105.941406 L 101.5 104.359375 C 102.5 103.945312 103.351562 103.324219 104.054688 102.496094 C 104.5625 101.816406 104.847656 101.050781 104.910156 100.203125 C 104.96875 99.410156 104.78125 98.902344 104.351562 98.679688 C 103.917969 98.457031 103.121094 98.621094 101.957031 99.171875 L 98.550781 100.765625 " fill-opacity="1" fill-rule="nonzero"/></g></g></g></g><g clip-path="url(#040606f7e2)"><g clip-path="url(#0efff374c9)"><g clip-path="url(#f0e0571da3)"><g clip-path="url(#e8b616f14b)"><path fill="#000000" d="M 147.109375 110.117188 L 146.664062 110.5625 C 144.660156 112.632812 142.5 114.519531 140.179688 116.230469 C 138.039062 117.707031 135.757812 118.917969 133.339844 119.863281 C 130.011719 121.1875 127.367188 121.664062 125.296875 121.277344 C 124.242188 121.089844 123.296875 120.671875 122.453125 120.011719 L 115.433594 114.429688 C 114.519531 113.675781 113.839844 112.75 113.398438 111.652344 C 112.558594 109.628906 112.363281 107.054688 112.828125 103.988281 C 113.289062 100.820312 114.300781 97.835938 115.855469 95.03125 C 116.550781 93.792969 117.339844 92.613281 118.222656 91.496094 C 119.355469 90.070312 120.621094 88.769531 122.011719 87.589844 C 124.320312 85.726562 126.859375 84.273438 129.628906 83.222656 C 130.898438 82.699219 132.195312 82.246094 133.515625 81.867188 C 134.457031 81.582031 135.421875 81.417969 136.40625 81.382812 C 137.808594 81.316406 139.066406 81.714844 140.179688 82.570312 L 147.21875 88.144531 C 147.382812 88.273438 147.535156 88.414062 147.679688 88.566406 C 148.613281 89.515625 149.21875 90.882812 149.503906 92.652344 C 149.519531 92.730469 149.539062 92.84375 149.550781 92.957031 L 149.6875 93.972656 L 148.386719 94.726562 L 147.445312 95.265625 L 149.378906 96.792969 L 147.597656 108.875 L 147.464844 109.753906 Z M 147.109375 110.117188 " fill-opacity="1" fill-rule="nonzero"/></g></g></g></g><g clip-path="url(#103fc0b6ef)"><g clip-path="url(#98fcc94e8b)"><g clip-path="url(#150edbf592)"><g clip-path="url(#51949a9261)"><path fill="#ffffff" d="M 130.195312 84.660156 C 133.023438 83.53125 135.097656 82.957031 136.417969 82.9375 C 136.996094 82.898438 137.558594 82.976562 138.101562 83.171875 C 138.644531 83.367188 139.125 83.667969 139.539062 84.066406 C 140.296875 84.835938 140.777344 86.007812 140.988281 87.570312 L 133.148438 92.0625 C 132.984375 91.167969 132.566406 90.597656 131.898438 90.355469 C 131.226562 90.113281 130.308594 90.230469 129.144531 90.6875 C 127.316406 91.4375 125.839844 92.632812 124.714844 94.261719 C 123.503906 95.945312 122.695312 98.167969 122.285156 100.9375 C 121.851562 103.875 122.066406 105.765625 122.921875 106.605469 C 123.777344 107.445312 125.136719 107.492188 127 106.75 C 127.917969 106.378906 128.78125 105.90625 129.585938 105.332031 C 130.632812 104.574219 131.621094 103.742188 132.546875 102.84375 L 132.914062 100.304688 L 127.636719 102.402344 L 128.46875 96.757812 L 140.683594 91.875 L 138.984375 103.4375 C 136.914062 105.609375 134.679688 107.585938 132.269531 109.375 C 130.226562 110.785156 128.050781 111.941406 125.738281 112.847656 C 122.707031 114.058594 120.3125 114.5 118.554688 114.167969 C 117.699219 114.015625 116.941406 113.664062 116.28125 113.105469 C 115.617188 112.550781 115.136719 111.863281 114.839844 111.050781 C 114.097656 109.292969 113.933594 107.007812 114.347656 104.203125 C 114.785156 101.222656 115.738281 98.414062 117.207031 95.78125 C 118.710938 93.089844 120.640625 90.753906 123.003906 88.773438 C 125.179688 87.015625 127.578125 85.644531 130.195312 84.660156 Z M 130.195312 84.660156 " fill-opacity="1" fill-rule="nonzero"/></g></g></g></g></svg>