<svg xmlns="http://www.w3.org/2000/svg" xmlns:xlink="http://www.w3.org/1999/xlink" width="1168" zoomAndPan="magnify" viewBox="0 0 876 341.249999" height="455" preserveAspectRatio="xMidYMid meet" version="1.0"><defs><clipPath id="004cf91965"><path d="M 76.316406 75.449219 L 484 75.449219 L 484 265.53125 L 76.316406 265.53125 Z M 76.316406 75.449219 " clip-rule="nonzero"/></clipPath><clipPath id="816ce46879"><path d="M 388 75.449219 L 799.976562 75.449219 L 799.976562 265.53125 L 388 265.53125 Z M 388 75.449219 " clip-rule="nonzero"/></clipPath><clipPath id="c9e11ac3c9"><path d="M 450.796875 180.402344 L 472.5 180.402344 L 472.5 196.117188 L 450.796875 196.117188 Z M 450.796875 180.402344 " clip-rule="nonzero"/></clipPath></defs><g clip-path="url(#004cf91965)"><path fill="#020e1e" d="M 170.851562 75.890625 C 118.597656 75.890625 76.316406 118.203125 76.316406 170.488281 C 76.316406 222.773438 118.597656 265.085938 170.851562 265.085938 L 388.914062 265.085938 L 483.148438 75.890625 Z M 170.851562 75.890625 " fill-opacity="1" fill-rule="nonzero"/></g><g clip-path="url(#816ce46879)"><path fill="#e2e6f2" d="M 705.441406 75.890625 L 483.148438 75.890625 L 388.914062 265.085938 L 705.441406 265.085938 C 757.691406 265.085938 799.972656 222.773438 799.972656 170.488281 C 799.972656 118.203125 757.691406 75.890625 705.441406 75.890625 Z M 705.441406 75.890625 " fill-opacity="1" fill-rule="nonzero"/></g><path fill="#e2e6f2" d="M 275.050781 120.320312 C 284.109375 130.59375 288.941406 144.800781 287.433594 159.304688 C 284.414062 187.714844 259.042969 208.570312 230.652344 205.546875 C 225.214844 204.941406 220.382812 203.734375 215.550781 201.617188 C 224.007812 211.289062 235.785156 217.9375 249.378906 219.148438 C 277.769531 222.167969 303.136719 201.316406 306.160156 172.90625 C 308.574219 150.238281 295.285156 129.082031 275.050781 120.320312 Z M 275.050781 120.320312 " fill-opacity="1" fill-rule="nonzero"/><path fill="#effdfc" d="M 264.175781 140.265625 C 232.765625 141.777344 231.558594 142.984375 230.046875 174.417969 C 228.539062 142.988281 227.328125 141.777344 195.917969 140.265625 C 227.328125 138.753906 228.539062 137.546875 230.046875 106.113281 C 231.558594 137.546875 232.765625 138.753906 264.175781 140.265625 Z M 264.175781 140.265625 " fill-opacity="1" fill-rule="nonzero"/><path fill="#020e1e" d="M 629.628906 178.042969 C 629.628906 179.085938 629.578125 180.121094 629.476562 181.15625 C 629.375 182.191406 629.222656 183.214844 629.019531 184.234375 C 628.820312 185.253906 628.566406 186.261719 628.265625 187.257812 C 627.964844 188.25 627.613281 189.226562 627.214844 190.1875 C 626.820312 191.148438 626.375 192.085938 625.886719 193.003906 C 625.398438 193.921875 624.863281 194.8125 624.285156 195.675781 C 623.707031 196.539062 623.089844 197.371094 622.433594 198.175781 C 621.773438 198.980469 621.078125 199.75 620.34375 200.484375 C 619.609375 201.21875 618.839844 201.914062 618.035156 202.574219 C 617.234375 203.234375 616.398438 203.851562 615.535156 204.429688 C 614.671875 205.007812 613.78125 205.542969 612.867188 206.03125 C 611.953125 206.519531 611.011719 206.964844 610.054688 207.363281 C 609.09375 207.761719 608.117188 208.109375 607.125 208.410156 C 606.128906 208.714844 605.125 208.964844 604.105469 209.167969 C 603.085938 209.371094 602.058594 209.523438 601.027344 209.625 C 599.992188 209.726562 598.957031 209.777344 597.917969 209.777344 C 596.878906 209.777344 595.84375 209.726562 594.808594 209.625 C 593.777344 209.523438 592.75 209.371094 591.730469 209.167969 C 590.710938 208.964844 589.707031 208.714844 588.710938 208.410156 C 587.71875 208.109375 586.742188 207.761719 585.78125 207.363281 C 584.820312 206.964844 583.882812 206.519531 582.96875 206.03125 C 582.050781 205.542969 581.164062 205.007812 580.300781 204.429688 C 579.433594 203.851562 578.601562 203.234375 577.800781 202.574219 C 576.996094 201.914062 576.226562 201.21875 575.492188 200.484375 C 574.757812 199.75 574.0625 198.980469 573.402344 198.175781 C 572.746094 197.371094 572.125 196.539062 571.550781 195.675781 C 570.972656 194.8125 570.4375 193.921875 569.949219 193.003906 C 569.460938 192.085938 569.015625 191.148438 568.617188 190.1875 C 568.222656 189.226562 567.871094 188.25 567.570312 187.257812 C 567.269531 186.261719 567.015625 185.253906 566.8125 184.234375 C 566.613281 183.214844 566.460938 182.191406 566.359375 181.15625 C 566.253906 180.121094 566.203125 179.085938 566.203125 178.042969 C 566.203125 177.003906 566.253906 175.96875 566.359375 174.933594 C 566.460938 173.898438 566.613281 172.875 566.8125 171.855469 C 567.015625 170.835938 567.269531 169.828125 567.570312 168.832031 C 567.871094 167.839844 568.222656 166.859375 568.617188 165.902344 C 569.015625 164.941406 569.460938 164.003906 569.949219 163.085938 C 570.4375 162.167969 570.972656 161.277344 571.550781 160.414062 C 572.125 159.550781 572.746094 158.714844 573.402344 157.914062 C 574.0625 157.109375 574.757812 156.339844 575.492188 155.605469 C 576.226562 154.871094 576.996094 154.171875 577.800781 153.515625 C 578.601562 152.855469 579.433594 152.234375 580.300781 151.660156 C 581.164062 151.082031 582.050781 150.546875 582.96875 150.058594 C 583.882812 149.566406 584.820312 149.125 585.78125 148.726562 C 586.742188 148.328125 587.71875 147.980469 588.710938 147.675781 C 589.707031 147.375 590.710938 147.125 591.730469 146.921875 C 592.75 146.71875 593.777344 146.566406 594.808594 146.464844 C 595.84375 146.363281 596.878906 146.3125 597.917969 146.3125 C 598.957031 146.3125 599.992188 146.363281 601.027344 146.464844 C 602.058594 146.566406 603.085938 146.71875 604.105469 146.921875 C 605.125 147.125 606.128906 147.375 607.125 147.675781 C 608.117188 147.980469 609.09375 148.328125 610.054688 148.726562 C 611.011719 149.125 611.953125 149.566406 612.867188 150.058594 C 613.78125 150.546875 614.671875 151.082031 615.535156 151.660156 C 616.398438 152.234375 617.234375 152.855469 618.035156 153.515625 C 618.839844 154.171875 619.609375 154.871094 620.34375 155.605469 C 621.078125 156.339844 621.773438 157.109375 622.433594 157.914062 C 623.089844 158.714844 623.707031 159.550781 624.285156 160.414062 C 624.863281 161.277344 625.398438 162.167969 625.886719 163.085938 C 626.375 164.003906 626.820312 164.941406 627.214844 165.902344 C 627.613281 166.859375 627.964844 167.839844 628.265625 168.832031 C 628.566406 169.828125 628.820312 170.835938 629.019531 171.855469 C 629.222656 172.875 629.375 173.898438 629.476562 174.933594 C 629.578125 175.96875 629.628906 177.003906 629.628906 178.042969 Z M 629.628906 178.042969 " fill-opacity="1" fill-rule="nonzero"/><path fill="#020e1e" d="M 593.386719 109.136719 L 602.449219 109.136719 L 602.449219 139.660156 L 593.386719 139.660156 Z M 593.386719 109.136719 " fill-opacity="1" fill-rule="nonzero"/><path fill="#020e1e" d="M 552.367188 126.277344 L 573.9375 147.863281 L 567.53125 154.273438 L 545.960938 132.691406 Z M 552.367188 126.277344 " fill-opacity="1" fill-rule="nonzero"/><path fill="#020e1e" d="M 529.054688 173.511719 L 559.558594 173.511719 L 559.558594 182.578125 L 529.054688 182.578125 Z M 529.054688 173.511719 " fill-opacity="1" fill-rule="nonzero"/><path fill="#020e1e" d="M 567.554688 201.933594 L 573.960938 208.347656 L 552.390625 229.929688 L 545.984375 223.519531 Z M 567.554688 201.933594 " fill-opacity="1" fill-rule="nonzero"/><path fill="#020e1e" d="M 593.386719 216.425781 L 602.449219 216.425781 L 602.449219 246.953125 L 593.386719 246.953125 Z M 593.386719 216.425781 " fill-opacity="1" fill-rule="nonzero"/><path fill="#020e1e" d="M 628.210938 202.125 L 649.78125 223.710938 L 643.371094 230.121094 L 621.800781 208.535156 Z M 628.210938 202.125 " fill-opacity="1" fill-rule="nonzero"/><path fill="#020e1e" d="M 636.273438 173.511719 L 666.78125 173.511719 L 666.78125 182.578125 L 636.273438 182.578125 Z M 636.273438 173.511719 " fill-opacity="1" fill-rule="nonzero"/><path fill="#020e1e" d="M 643.347656 126.042969 L 649.757812 132.453125 L 628.1875 154.039062 L 621.777344 147.625 Z M 643.347656 126.042969 " fill-opacity="1" fill-rule="nonzero"/><g clip-path="url(#c9e11ac3c9)"><path fill="#020e1e" d="M 539.074219 180.820312 C 490.28125 180.820312 450.796875 220.296875 450.796875 269.082031 C 450.796875 317.867188 490.28125 357.347656 539.074219 357.347656 L 742.707031 357.347656 L 830.703125 180.820312 Z M 539.074219 180.820312 " fill-opacity="1" fill-rule="nonzero"/></g></svg>