<?xml version="1.0" encoding="UTF-8"?>
<svg xmlns="http://www.w3.org/2000/svg" xmlns:xlink="http://www.w3.org/1999/xlink" width="60px" height="62px" viewBox="0 0 60 62" version="1.1">
<g id="surface1">
<path style=" stroke:none;fill-rule:nonzero;fill:rgb(0%,0%,0%);fill-opacity:1;" d="M 59.769531 37.050781 C 59.410156 35.96875 58.464844 35.21875 57.246094 35.039062 C 56.671875 34.953125 56.011719 34.988281 55.238281 35.148438 C 53.878906 35.425781 52.871094 35.53125 52.136719 35.550781 C 54.910156 30.914062 57.164062 25.628906 58.464844 20.648438 C 60.566406 12.601562 59.441406 8.9375 58.128906 7.28125 C 54.660156 2.890625 49.597656 0.53125 43.488281 0.460938 C 40.230469 0.421875 37.371094 1.054688 35.878906 1.515625 C 34.488281 1.273438 32.996094 1.136719 31.425781 1.113281 C 28.488281 1.066406 25.894531 1.699219 23.675781 3.003906 C 22.445312 2.589844 20.476562 2.011719 18.199219 1.644531 C 12.84375 0.773438 8.53125 1.449219 5.371094 3.65625 C 1.550781 6.328125 -0.21875 10.972656 0.109375 17.453125 C 0.210938 19.515625 1.378906 25.78125 3.207031 31.722656 C 4.261719 35.132812 5.382812 37.96875 6.542969 40.148438 C 8.191406 43.238281 9.953125 45.054688 11.933594 45.710938 C 13.039062 46.074219 15.054688 46.332031 17.175781 44.582031 C 17.441406 44.90625 17.800781 45.226562 18.277344 45.523438 C 18.882812 45.898438 19.621094 46.207031 20.355469 46.390625 C 23.015625 47.046875 25.503906 46.886719 27.628906 45.964844 C 27.640625 46.335938 27.652344 46.691406 27.660156 47 C 27.675781 47.5 27.6875 47.992188 27.707031 48.453125 C 27.832031 51.554688 28.046875 53.96875 28.679688 55.65625 C 28.714844 55.746094 28.761719 55.890625 28.808594 56.039062 C 29.125 56.996094 29.652344 58.59375 30.992188 59.847656 C 32.382812 61.144531 34.058594 61.542969 35.597656 61.542969 C 36.371094 61.542969 37.105469 61.441406 37.753906 61.304688 C 40.054688 60.816406 42.667969 60.074219 44.558594 57.40625 C 46.347656 54.890625 47.214844 51.09375 47.371094 45.113281 C 47.394531 44.945312 47.410156 44.785156 47.433594 44.628906 L 47.464844 44.316406 L 47.886719 44.347656 L 47.996094 44.359375 C 50.339844 44.464844 53.207031 43.96875 54.96875 43.160156 C 56.359375 42.523438 60.816406 40.195312 59.769531 37.050781 "/>
<path style=" stroke:none;fill-rule:nonzero;fill:rgb(20%,40.392157%,56.862745%);fill-opacity:1;" d="M 55.757812 37.660156 C 48.789062 39.082031 48.308594 36.75 48.308594 36.75 C 55.667969 25.9375 58.746094 12.21875 56.089844 8.859375 C 48.847656 -0.300781 36.308594 4.03125 36.097656 4.144531 L 36.03125 4.15625 C 34.65625 3.871094 33.113281 3.703125 31.382812 3.675781 C 28.230469 3.625 25.835938 4.492188 24.019531 5.855469 C 24.019531 5.855469 1.65625 -3.261719 2.695312 17.328125 C 2.914062 21.710938 9.039062 50.472656 16.339844 41.785156 C 19.007812 38.605469 21.589844 35.921875 21.589844 35.921875 C 22.871094 36.761719 24.402344 37.195312 26.011719 37.039062 L 26.132812 36.933594 C 26.09375 37.328125 26.113281 37.714844 26.183594 38.171875 C 24.300781 40.253906 24.855469 40.617188 21.09375 41.382812 C 17.292969 42.160156 19.527344 43.542969 20.984375 43.902344 C 22.753906 44.339844 26.847656 44.960938 29.613281 41.128906 L 29.503906 41.566406 C 30.238281 42.148438 30.753906 45.367188 30.671875 48.28125 C 30.582031 51.199219 30.523438 53.199219 31.105469 54.761719 C 31.6875 56.328125 32.265625 59.847656 37.210938 58.796875 C 41.339844 57.921875 43.480469 55.652344 43.777344 51.863281 C 43.988281 49.167969 44.464844 49.570312 44.5 47.164062 L 44.882812 46.019531 C 45.324219 42.371094 44.953125 41.195312 47.496094 41.742188 L 48.113281 41.796875 C 49.988281 41.882812 52.4375 41.5 53.878906 40.835938 C 56.976562 39.414062 58.8125 37.039062 55.757812 37.660156 "/>
<path style=" stroke:none;fill-rule:nonzero;fill:rgb(100%,100%,100%);fill-opacity:1;" d="M 25.332031 19.289062 C 24.703125 19.199219 24.136719 19.28125 23.84375 19.496094 C 23.683594 19.617188 23.632812 19.757812 23.621094 19.855469 C 23.582031 20.109375 23.765625 20.394531 23.878906 20.542969 C 24.191406 20.953125 24.652344 21.238281 25.109375 21.300781 C 25.175781 21.3125 25.242188 21.316406 25.308594 21.316406 C 26.066406 21.316406 26.761719 20.730469 26.816406 20.296875 C 26.894531 19.753906 26.101562 19.390625 25.332031 19.289062 M 46.140625 19.304688 C 46.078125 18.878906 45.316406 18.757812 44.589844 18.859375 C 43.867188 18.957031 43.167969 19.28125 43.222656 19.707031 C 43.269531 20.039062 43.875 20.601562 44.589844 20.601562 C 44.652344 20.601562 44.710938 20.601562 44.769531 20.589844 C 45.25 20.523438 45.601562 20.222656 45.769531 20.050781 C 46.019531 19.789062 46.167969 19.496094 46.140625 19.304688 "/>
<path style=" stroke:none;fill-rule:nonzero;fill:rgb(100%,100%,100%);fill-opacity:1;" d="M 58.078125 37.5 C 57.8125 36.703125 56.957031 36.449219 55.535156 36.738281 C 51.316406 37.601562 49.804688 37.003906 49.308594 36.640625 C 52.589844 31.695312 55.285156 25.714844 56.742188 20.136719 C 57.433594 17.496094 57.816406 15.042969 57.84375 13.039062 C 57.878906 10.847656 57.5 9.230469 56.722656 8.246094 C 53.582031 4.273438 48.96875 2.140625 43.390625 2.082031 C 39.554688 2.042969 36.3125 3.015625 35.683594 3.285156 C 34.359375 2.960938 32.917969 2.761719 31.347656 2.734375 C 28.46875 2.691406 25.976562 3.371094 23.917969 4.761719 C 23.019531 4.433594 20.707031 3.648438 17.878906 3.195312 C 12.988281 2.417969 9.097656 3.003906 6.324219 4.953125 C 3.015625 7.273438 1.488281 11.421875 1.785156 17.285156 C 1.882812 19.257812 3.019531 25.324219 4.808594 31.132812 C 7.167969 38.78125 9.730469 43.113281 12.425781 44.003906 C 12.746094 44.105469 13.105469 44.179688 13.507812 44.179688 C 14.492188 44.179688 15.699219 43.738281 16.953125 42.246094 C 18.488281 40.429688 20.066406 38.652344 21.703125 36.925781 C 22.761719 37.492188 23.929688 37.804688 25.121094 37.835938 C 25.121094 37.867188 25.125 37.898438 25.128906 37.929688 C 24.921875 38.171875 24.722656 38.417969 24.527344 38.664062 C 23.699219 39.703125 23.527344 39.921875 20.871094 40.460938 C 20.113281 40.613281 18.109375 41.027344 18.078125 42.417969 C 18.046875 43.9375 20.453125 44.578125 20.722656 44.648438 C 21.679688 44.882812 22.597656 45 23.480469 45 C 25.613281 45 27.488281 44.304688 28.988281 42.964844 C 28.941406 48.386719 29.171875 53.734375 29.832031 55.363281 C 30.371094 56.695312 31.683594 59.953125 35.84375 59.953125 C 36.453125 59.953125 37.128906 59.882812 37.867188 59.726562 C 42.207031 58.808594 44.089844 56.910156 44.820312 52.722656 C 45.210938 50.484375 45.882812 45.140625 46.195312 42.273438 C 46.859375 42.480469 47.714844 42.574219 48.640625 42.574219 C 50.570312 42.574219 52.796875 42.167969 54.191406 41.523438 C 55.761719 40.804688 58.589844 39.035156 58.078125 37.5 Z M 47.742188 18.132812 C 47.726562 18.976562 47.609375 19.746094 47.484375 20.546875 C 47.347656 21.410156 47.210938 22.300781 47.175781 23.382812 C 47.140625 24.4375 47.277344 25.53125 47.402344 26.589844 C 47.664062 28.730469 47.929688 30.933594 46.898438 33.105469 C 46.726562 32.804688 46.574219 32.492188 46.441406 32.175781 C 46.3125 31.867188 46.035156 31.375 45.652344 30.691406 C 44.152344 28.027344 40.636719 21.792969 42.433594 19.25 C 42.96875 18.492188 44.328125 17.710938 47.742188 18.132812 Z M 43.605469 3.796875 C 48.605469 3.90625 52.5625 5.757812 55.363281 9.300781 C 57.511719 12.015625 55.144531 24.378906 48.300781 35.042969 C 48.230469 34.957031 48.160156 34.871094 48.089844 34.785156 L 48.003906 34.679688 C 49.773438 31.785156 49.425781 28.925781 49.121094 26.386719 C 48.992188 25.34375 48.871094 24.363281 48.902344 23.441406 C 48.933594 22.460938 49.066406 21.617188 49.191406 20.808594 C 49.347656 19.808594 49.503906 18.769531 49.460938 17.550781 C 49.496094 17.421875 49.507812 17.269531 49.492188 17.09375 C 49.378906 15.921875 48.027344 12.417969 45.277344 9.25 C 43.773438 7.511719 41.578125 5.574219 38.582031 4.265625 C 39.871094 4 41.628906 3.753906 43.605469 3.796875 Z M 15.628906 41.15625 C 14.246094 42.800781 13.289062 42.484375 12.976562 42.378906 C 10.925781 41.707031 8.554688 37.421875 6.464844 30.636719 C 4.648438 24.761719 3.589844 18.855469 3.507812 17.199219 C 3.242188 11.960938 4.527344 8.308594 7.320312 6.347656 C 11.867188 3.15625 19.34375 5.070312 22.351562 6.039062 C 22.308594 6.078125 22.261719 6.117188 22.21875 6.160156 C 17.289062 11.089844 17.40625 19.507812 17.417969 20.027344 C 17.417969 20.222656 17.433594 20.503906 17.457031 20.890625 C 17.542969 22.308594 17.699219 24.941406 17.277344 27.925781 C 16.886719 30.703125 17.75 33.417969 19.648438 35.375 C 19.84375 35.578125 20.046875 35.769531 20.261719 35.953125 C 19.417969 36.84375 17.582031 38.824219 15.628906 41.15625 Z M 20.894531 34.195312 C 19.363281 32.617188 18.671875 30.417969 18.988281 28.167969 C 19.433594 25.011719 19.269531 22.265625 19.179688 20.789062 C 19.167969 20.582031 19.15625 20.402344 19.152344 20.257812 C 19.871094 19.628906 23.207031 17.859375 25.589844 18.398438 C 26.675781 18.644531 27.335938 19.375 27.613281 20.636719 C 29.035156 27.152344 27.800781 29.875 26.808594 32.054688 C 26.605469 32.503906 26.410156 32.933594 26.246094 33.371094 L 26.117188 33.710938 C 25.792969 34.570312 25.496094 35.371094 25.308594 36.128906 C 23.679688 36.125 22.097656 35.4375 20.894531 34.195312 Z M 21.144531 42.988281 C 20.667969 42.871094 20.246094 42.664062 19.992188 42.496094 C 20.203125 42.398438 20.574219 42.265625 21.21875 42.136719 C 24.347656 41.5 24.828125 41.050781 25.882812 39.722656 C 26.125 39.421875 26.398438 39.078125 26.777344 38.65625 C 27.34375 38.027344 27.605469 38.132812 28.074219 38.328125 C 28.449219 38.484375 28.824219 38.953125 28.972656 39.472656 C 29.042969 39.71875 29.121094 40.183594 28.859375 40.542969 C 26.65625 43.597656 23.449219 43.558594 21.144531 42.988281 Z M 37.503906 58.054688 C 33.679688 58.867188 32.324219 56.933594 31.433594 54.730469 C 30.859375 53.300781 30.574219 46.875 30.777344 39.777344 C 30.777344 39.679688 30.765625 39.589844 30.738281 39.503906 C 30.714844 39.335938 30.679688 39.167969 30.632812 39.003906 C 30.332031 37.972656 29.605469 37.105469 28.730469 36.75 C 28.386719 36.605469 27.75 36.34375 26.980469 36.539062 C 27.144531 35.871094 27.429688 35.121094 27.734375 34.308594 L 27.863281 33.96875 C 28.011719 33.578125 28.191406 33.179688 28.382812 32.757812 C 29.421875 30.472656 30.847656 27.34375 29.300781 20.273438 C 28.722656 17.628906 26.792969 16.332031 23.863281 16.632812 C 22.105469 16.8125 20.503906 17.511719 19.699219 17.917969 C 19.527344 18.003906 19.371094 18.085938 19.222656 18.167969 C 19.449219 15.5 20.292969 10.511719 23.453125 7.359375 C 25.441406 5.371094 28.089844 4.390625 31.316406 4.445312 C 37.679688 4.550781 41.761719 7.777344 44.0625 10.472656 C 46.046875 12.792969 47.117188 15.128906 47.550781 16.390625 C 44.324219 16.066406 42.132812 16.695312 41.019531 18.269531 C 38.601562 21.6875 42.34375 28.332031 44.140625 31.523438 C 44.46875 32.105469 44.753906 32.613281 44.84375 32.828125 C 45.429688 34.234375 46.1875 35.167969 46.738281 35.851562 C 46.910156 36.0625 47.074219 36.265625 47.199219 36.445312 C 46.222656 36.722656 44.46875 37.367188 44.628906 40.585938 C 44.503906 42.199219 43.585938 49.757812 43.121094 52.429688 C 42.503906 55.960938 41.191406 57.273438 37.503906 58.058594 Z M 53.464844 39.976562 C 52.46875 40.433594 50.796875 40.777344 49.210938 40.851562 C 47.457031 40.933594 46.566406 40.660156 46.355469 40.488281 C 46.253906 38.480469 47.011719 38.273438 47.808594 38.050781 C 47.933594 38.019531 48.054688 37.984375 48.171875 37.941406 C 48.246094 38 48.328125 38.058594 48.417969 38.117188 C 49.824219 39.039062 52.335938 39.136719 55.886719 38.410156 L 55.925781 38.40625 C 55.449219 38.847656 54.628906 39.441406 53.464844 39.976562 Z M 53.464844 39.976562 "/>
</g>
</svg>
