<?xml version="1.0" encoding="utf-8"?>
<svg xmlns="http://www.w3.org/2000/svg" xmlns:xlink="http://www.w3.org/1999/xlink" width="62.775" zoomAndPan="magnify" viewBox="71.145 73.71 62.775 59.377495" height="59.377495" preserveAspectRatio="xMidYMid meet" version="1.0">
  <defs>
    <clipPath id="b47b77a1bd">
      <path d="M 75.398438 76 L 133.691406 76 L 133.691406 129 L 75.398438 129 Z M 75.398438 76 " clip-rule="nonzero" />
    </clipPath>
    <clipPath id="ce507eed18">
      <path d="M 101.355469 99.8125 L 107.332031 99.8125 L 107.332031 105.792969 L 101.355469 105.792969 Z M 101.355469 99.8125 " clip-rule="nonzero" />
    </clipPath>
  </defs>
  <g clip-path="url(#b47b77a1bd)">
    <path fill="#00d8ff" d="M 123.285156 93.453125 C 122.683594 93.246094 122.058594 93.050781 121.410156 92.863281 C 121.519531 92.433594 121.617188 92.007812 121.703125 91.589844 C 123.117188 84.726562 122.195312 79.199219 119.027344 77.378906 C 115.992188 75.632812 111.03125 77.453125 106.019531 81.804688 C 105.539062 82.222656 105.054688 82.664062 104.574219 83.128906 C 104.25 82.820312 103.929688 82.523438 103.609375 82.242188 C 98.355469 77.589844 93.089844 75.628906 89.929688 77.453125 C 86.898438 79.203125 86 84.402344 87.277344 90.90625 C 87.402344 91.535156 87.542969 92.175781 87.707031 92.828125 C 86.960938 93.039062 86.242188 93.265625 85.554688 93.503906 C 79.398438 95.644531 75.464844 99.003906 75.464844 102.484375 C 75.464844 106.078125 79.6875 109.6875 86.101562 111.875 C 86.605469 112.046875 87.132812 112.210938 87.671875 112.363281 C 87.496094 113.070312 87.34375 113.761719 87.214844 114.433594 C 86 120.828125 86.949219 125.902344 89.972656 127.640625 C 93.09375 129.4375 98.335938 127.589844 103.4375 123.140625 C 103.84375 122.789062 104.246094 122.414062 104.652344 122.027344 C 105.179688 122.527344 105.703125 123.007812 106.222656 123.457031 C 111.167969 127.699219 116.050781 129.414062 119.070312 127.667969 C 122.1875 125.867188 123.203125 120.414062 121.886719 113.78125 C 121.785156 113.273438 121.667969 112.757812 121.539062 112.230469 C 121.90625 112.125 122.269531 112.011719 122.621094 111.894531 C 129.289062 109.6875 133.625 106.128906 133.625 102.484375 C 133.625 98.988281 129.566406 95.609375 123.285156 93.453125 Z M 121.839844 109.542969 C 121.519531 109.644531 121.195312 109.75 120.863281 109.847656 C 120.125 107.523438 119.132812 105.050781 117.914062 102.496094 C 119.078125 100.003906 120.03125 97.5625 120.746094 95.253906 C 121.339844 95.425781 121.917969 95.605469 122.476562 95.796875 C 127.855469 97.644531 131.140625 100.378906 131.140625 102.484375 C 131.140625 104.726562 127.597656 107.636719 121.839844 109.542969 Z M 119.449219 114.261719 C 120.03125 117.195312 120.113281 119.847656 119.726562 121.921875 C 119.382812 123.785156 118.6875 125.027344 117.824219 125.523438 C 115.992188 126.582031 112.070312 125.207031 107.847656 121.578125 C 107.359375 121.160156 106.871094 120.714844 106.382812 120.246094 C 108.019531 118.457031 109.660156 116.378906 111.257812 114.070312 C 114.070312 113.824219 116.726562 113.414062 119.136719 112.859375 C 119.253906 113.339844 119.359375 113.804688 119.449219 114.261719 Z M 95.292969 125.339844 C 93.503906 125.972656 92.078125 125.988281 91.214844 125.492188 C 89.378906 124.4375 88.617188 120.363281 89.65625 114.898438 C 89.777344 114.273438 89.917969 113.628906 90.082031 112.972656 C 92.464844 113.496094 95.101562 113.875 97.921875 114.101562 C 99.53125 116.363281 101.214844 118.4375 102.914062 120.253906 C 102.542969 120.613281 102.171875 120.953125 101.804688 121.273438 C 99.546875 123.242188 97.285156 124.640625 95.292969 125.339844 Z M 86.90625 109.527344 C 84.066406 108.5625 81.726562 107.304688 80.121094 105.929688 C 78.679688 104.699219 77.949219 103.476562 77.949219 102.484375 C 77.949219 100.371094 81.105469 97.675781 86.375 95.84375 C 87.011719 95.621094 87.679688 95.414062 88.375 95.214844 C 89.101562 97.578125 90.058594 100.046875 91.210938 102.542969 C 90.042969 105.078125 89.074219 107.585938 88.339844 109.976562 C 87.84375 109.835938 87.367188 109.683594 86.90625 109.527344 Z M 89.714844 90.429688 C 88.625 84.855469 89.347656 80.652344 91.175781 79.597656 C 93.121094 78.476562 97.425781 80.078125 101.957031 84.09375 C 102.25 84.351562 102.539062 84.621094 102.832031 84.898438 C 101.144531 86.707031 99.472656 88.769531 97.878906 91.015625 C 95.140625 91.265625 92.523438 91.671875 90.117188 92.21875 C 89.964844 91.609375 89.832031 91.011719 89.714844 90.429688 Z M 114.804688 96.609375 C 114.226562 95.617188 113.636719 94.652344 113.035156 93.707031 C 114.890625 93.941406 116.667969 94.253906 118.339844 94.632812 C 117.839844 96.234375 117.214844 97.910156 116.476562 99.628906 C 115.949219 98.628906 115.390625 97.625 114.804688 96.609375 Z M 104.574219 86.667969 C 105.71875 87.90625 106.867188 89.289062 107.996094 90.792969 C 106.859375 90.738281 105.707031 90.710938 104.546875 90.710938 C 103.394531 90.710938 102.253906 90.738281 101.121094 90.789062 C 102.25 89.304688 103.410156 87.921875 104.574219 86.667969 Z M 94.277344 96.628906 C 93.703125 97.621094 93.152344 98.625 92.636719 99.628906 C 91.910156 97.917969 91.292969 96.234375 90.785156 94.605469 C 92.445312 94.238281 94.214844 93.933594 96.058594 93.703125 C 95.449219 94.65625 94.851562 95.628906 94.277344 96.628906 Z M 96.113281 111.4375 C 94.207031 111.226562 92.410156 110.941406 90.753906 110.578125 C 91.265625 108.925781 91.898438 107.207031 92.636719 105.457031 C 93.160156 106.460938 93.707031 107.464844 94.285156 108.460938 C 94.875 109.476562 95.484375 110.46875 96.113281 111.4375 Z M 104.640625 118.472656 C 103.464844 117.207031 102.289062 115.800781 101.140625 114.292969 C 102.253906 114.339844 103.390625 114.359375 104.546875 114.359375 C 105.730469 114.359375 106.902344 114.332031 108.054688 114.285156 C 106.925781 115.816406 105.777344 117.222656 104.640625 118.472656 Z M 116.5 105.371094 C 117.277344 107.136719 117.933594 108.847656 118.453125 110.472656 C 116.769531 110.855469 114.945312 111.164062 113.027344 111.394531 C 113.632812 110.441406 114.226562 109.457031 114.816406 108.441406 C 115.40625 107.417969 115.96875 106.390625 116.5 105.371094 Z M 112.660156 107.207031 C 111.75 108.777344 110.816406 110.277344 109.871094 111.695312 C 108.144531 111.816406 106.363281 111.882812 104.546875 111.882812 C 102.734375 111.882812 100.972656 111.828125 99.277344 111.714844 C 98.292969 110.28125 97.339844 108.777344 96.4375 107.21875 C 95.535156 105.667969 94.707031 104.101562 93.957031 102.542969 C 94.707031 100.984375 95.535156 99.414062 96.429688 97.867188 C 97.328125 96.3125 98.273438 94.8125 99.25 93.386719 C 100.976562 93.257812 102.753906 93.1875 104.546875 93.1875 C 106.347656 93.1875 108.121094 93.257812 109.851562 93.386719 C 110.8125 94.804688 111.75 96.296875 112.652344 97.851562 C 113.566406 99.425781 114.402344 100.980469 115.160156 102.507812 C 114.40625 104.0625 113.570312 105.632812 112.660156 107.207031 Z M 117.785156 79.523438 C 119.734375 80.644531 120.492188 85.164062 119.265625 91.089844 C 119.191406 91.46875 119.101562 91.851562 119.007812 92.242188 C 116.59375 91.6875 113.972656 91.273438 111.230469 91.015625 C 109.632812 88.746094 107.976562 86.683594 106.3125 84.894531 C 106.761719 84.46875 107.207031 84.058594 107.652344 83.671875 C 111.945312 79.945312 115.960938 78.472656 117.785156 79.523438 Z M 104.546875 97.300781 C 107.414062 97.300781 109.738281 99.621094 109.738281 102.484375 C 109.738281 105.34375 107.414062 107.664062 104.546875 107.664062 C 101.679688 107.664062 99.351562 105.34375 99.351562 102.484375 C 99.351562 99.621094 101.679688 97.300781 104.546875 97.300781 Z M 104.546875 97.300781 " fill-opacity="1" fill-rule="nonzero" />
  </g>
  <g clip-path="url(#ce507eed18)">
    <path fill="#00d8ff" d="M 106.265625 101.792969 C 106.203125 101.769531 106.140625 101.75 106.074219 101.726562 C 106.082031 101.679688 106.09375 101.632812 106.101562 101.585938 C 106.246094 100.824219 106.152344 100.210938 105.828125 100.007812 C 105.515625 99.8125 105.007812 100.015625 104.496094 100.5 C 104.445312 100.546875 104.394531 100.59375 104.347656 100.648438 C 104.3125 100.613281 104.28125 100.578125 104.246094 100.546875 C 103.710938 100.03125 103.167969 99.8125 102.84375 100.015625 C 102.535156 100.210938 102.441406 100.789062 102.574219 101.511719 C 102.585938 101.582031 102.601562 101.652344 102.617188 101.722656 C 102.542969 101.746094 102.46875 101.773438 102.398438 101.800781 C 101.765625 102.039062 101.363281 102.410156 101.363281 102.796875 C 101.363281 103.195312 101.796875 103.597656 102.453125 103.839844 C 102.503906 103.859375 102.558594 103.878906 102.613281 103.894531 C 102.597656 103.972656 102.582031 104.050781 102.566406 104.125 C 102.441406 104.835938 102.539062 105.398438 102.851562 105.59375 C 103.171875 105.792969 103.707031 105.585938 104.230469 105.09375 C 104.273438 105.054688 104.3125 105.011719 104.355469 104.96875 C 104.410156 105.023438 104.460938 105.078125 104.515625 105.128906 C 105.023438 105.597656 105.523438 105.789062 105.832031 105.59375 C 106.152344 105.394531 106.257812 104.789062 106.121094 104.050781 C 106.113281 103.996094 106.097656 103.9375 106.085938 103.878906 C 106.125 103.867188 106.160156 103.855469 106.195312 103.84375 C 106.878906 103.597656 107.324219 103.203125 107.324219 102.796875 C 107.324219 102.410156 106.910156 102.035156 106.265625 101.792969 Z M 106.117188 103.582031 C 106.085938 103.59375 106.050781 103.605469 106.015625 103.617188 C 105.941406 103.355469 105.839844 103.082031 105.714844 102.796875 C 105.832031 102.523438 105.929688 102.25 106.003906 101.992188 C 106.066406 102.011719 106.125 102.03125 106.183594 102.054688 C 106.734375 102.257812 107.070312 102.5625 107.070312 102.796875 C 107.070312 103.046875 106.707031 103.371094 106.117188 103.582031 Z M 105.871094 104.105469 C 105.929688 104.433594 105.941406 104.726562 105.898438 104.957031 C 105.863281 105.164062 105.792969 105.300781 105.707031 105.355469 C 105.515625 105.476562 105.117188 105.320312 104.683594 104.917969 C 104.632812 104.871094 104.582031 104.824219 104.53125 104.769531 C 104.699219 104.570312 104.867188 104.339844 105.03125 104.085938 C 105.320312 104.058594 105.59375 104.011719 105.839844 103.949219 C 105.851562 104.003906 105.863281 104.054688 105.871094 104.105469 Z M 103.394531 105.335938 C 103.210938 105.40625 103.066406 105.410156 102.976562 105.355469 C 102.789062 105.238281 102.710938 104.785156 102.816406 104.175781 C 102.828125 104.105469 102.84375 104.035156 102.859375 103.960938 C 103.105469 104.019531 103.375 104.0625 103.664062 104.089844 C 103.828125 104.339844 104.003906 104.570312 104.175781 104.773438 C 104.136719 104.8125 104.101562 104.847656 104.0625 104.886719 C 103.832031 105.105469 103.601562 105.257812 103.394531 105.335938 Z M 102.535156 103.578125 C 102.246094 103.472656 102.003906 103.332031 101.839844 103.179688 C 101.691406 103.042969 101.617188 102.90625 101.617188 102.796875 C 101.617188 102.5625 101.941406 102.261719 102.480469 102.058594 C 102.546875 102.035156 102.613281 102.011719 102.6875 101.988281 C 102.761719 102.253906 102.859375 102.527344 102.976562 102.804688 C 102.855469 103.085938 102.757812 103.363281 102.683594 103.628906 C 102.632812 103.613281 102.582031 103.597656 102.535156 103.578125 Z M 102.824219 101.457031 C 102.710938 100.839844 102.785156 100.371094 102.972656 100.253906 C 103.171875 100.128906 103.613281 100.308594 104.078125 100.753906 C 104.109375 100.78125 104.136719 100.8125 104.167969 100.84375 C 103.996094 101.042969 103.824219 101.273438 103.660156 101.523438 C 103.378906 101.550781 103.113281 101.597656 102.863281 101.65625 C 102.847656 101.589844 102.835938 101.523438 102.824219 101.457031 Z M 105.394531 102.144531 C 105.335938 102.035156 105.277344 101.925781 105.214844 101.820312 C 105.40625 101.847656 105.585938 101.882812 105.757812 101.925781 C 105.707031 102.101562 105.640625 102.289062 105.566406 102.480469 C 105.511719 102.367188 105.457031 102.257812 105.394531 102.144531 Z M 104.347656 101.039062 C 104.464844 101.175781 104.582031 101.332031 104.699219 101.5 C 104.582031 101.492188 104.460938 101.488281 104.34375 101.488281 C 104.226562 101.488281 104.109375 101.492188 103.992188 101.496094 C 104.109375 101.332031 104.226562 101.179688 104.347656 101.039062 Z M 103.292969 102.148438 C 103.230469 102.257812 103.175781 102.367188 103.121094 102.480469 C 103.046875 102.289062 102.984375 102.101562 102.933594 101.921875 C 103.101562 101.882812 103.285156 101.847656 103.472656 101.820312 C 103.410156 101.925781 103.351562 102.035156 103.292969 102.148438 Z M 103.480469 103.792969 C 103.285156 103.769531 103.101562 103.738281 102.929688 103.695312 C 102.984375 103.511719 103.046875 103.320312 103.125 103.128906 C 103.175781 103.238281 103.234375 103.351562 103.292969 103.460938 C 103.351562 103.574219 103.414062 103.683594 103.480469 103.792969 Z M 104.355469 104.574219 C 104.234375 104.433594 104.113281 104.277344 103.996094 104.109375 C 104.109375 104.113281 104.226562 104.117188 104.34375 104.117188 C 104.464844 104.117188 104.585938 104.113281 104.703125 104.109375 C 104.585938 104.277344 104.46875 104.433594 104.355469 104.574219 Z M 105.570312 103.117188 C 105.648438 103.3125 105.714844 103.503906 105.769531 103.683594 C 105.597656 103.726562 105.410156 103.761719 105.214844 103.789062 C 105.277344 103.679688 105.335938 103.570312 105.398438 103.460938 C 105.457031 103.34375 105.515625 103.230469 105.570312 103.117188 Z M 105.175781 103.320312 C 105.082031 103.496094 104.988281 103.664062 104.890625 103.820312 C 104.714844 103.835938 104.53125 103.839844 104.34375 103.839844 C 104.160156 103.839844 103.976562 103.835938 103.804688 103.824219 C 103.703125 103.664062 103.605469 103.496094 103.511719 103.324219 C 103.421875 103.152344 103.335938 102.976562 103.257812 102.804688 C 103.335938 102.628906 103.421875 102.457031 103.511719 102.285156 C 103.605469 102.113281 103.699219 101.945312 103.800781 101.785156 C 103.976562 101.773438 104.160156 101.765625 104.34375 101.765625 C 104.527344 101.765625 104.710938 101.773438 104.886719 101.785156 C 104.988281 101.945312 105.082031 102.109375 105.175781 102.28125 C 105.269531 102.457031 105.355469 102.628906 105.433594 102.800781 C 105.355469 102.972656 105.269531 103.148438 105.175781 103.320312 Z M 105.703125 100.246094 C 105.902344 100.371094 105.980469 100.871094 105.851562 101.53125 C 105.84375 101.574219 105.835938 101.617188 105.828125 101.660156 C 105.578125 101.597656 105.308594 101.550781 105.03125 101.523438 C 104.867188 101.269531 104.695312 101.042969 104.523438 100.84375 C 104.570312 100.796875 104.617188 100.75 104.664062 100.707031 C 105.101562 100.292969 105.515625 100.128906 105.703125 100.246094 Z M 104.34375 102.222656 C 104.636719 102.222656 104.875 102.480469 104.875 102.796875 C 104.875 103.113281 104.636719 103.371094 104.34375 103.371094 C 104.050781 103.371094 103.8125 103.113281 103.8125 102.796875 C 103.8125 102.480469 104.050781 102.222656 104.34375 102.222656 Z M 104.34375 102.222656 " fill-opacity="1" fill-rule="nonzero" />
  </g>
</svg>