<?xml version="1.0" standalone="no"?>
<!DOCTYPE svg PUBLIC "-//W3C//DTD SVG 20010904//EN"
 "http://www.w3.org/TR/2001/REC-SVG-20010904/DTD/svg10.dtd">
<svg version="1.0" xmlns="http://www.w3.org/2000/svg"
 width="200.000000pt" height="200.000000pt" viewBox="0 0 200.000000 200.000000"
 preserveAspectRatio="xMidYMid meet">

<g transform="translate(0.000000,200.000000) scale(0.100000,-0.100000)"
fill="#000000" stroke="none">
<path d="M1320 1986 c-6 -8 -10 -25 -8 -38 3 -20 11 -24 87 -35 157 -22 262
-74 362 -180 84 -88 149 -232 149 -330 l0 -32 -81 -3 c-65 -2 -84 -7 -93 -21
-8 -12 -8 -22 0 -35 9 -14 29 -17 124 -20 74 -2 117 1 126 9 18 15 18 94 -1
184 -38 183 -177 362 -345 444 -125 61 -291 91 -320 57z"/>
<path d="M142 1905 c-60 -26 -62 -39 -62 -480 0 -445 1 -454 65 -481 52 -22
838 -17 872 6 47 31 48 38 48 475 0 453 0 451 -60 480 -47 22 -812 22 -863 0z
m462 -137 c11 -16 16 -46 16 -105 l0 -82 126 -3 c108 -3 128 -6 138 -21 19
-30 -4 -52 -63 -55 -49 -3 -51 -4 -51 -32 0 -46 -43 -153 -85 -210 -23 -31
-34 -55 -29 -60 16 -16 126 -50 161 -50 48 0 73 -16 73 -46 0 -16 -8 -28 -24
-35 -33 -16 -159 11 -234 49 l-59 30 -66 -33 c-77 -39 -194 -62 -226 -45 -27
14 -28 56 -2 70 11 5 33 10 49 10 36 0 159 37 167 50 3 5 -14 37 -38 72 -38
56 -64 119 -81 201 -6 24 -11 27 -50 27 -51 0 -71 18 -62 55 l6 25 130 0 130
0 0 87 c0 66 4 91 17 105 21 24 39 23 57 -4z"/>
<path d="M465 1463 c9 -51 48 -130 83 -172 l29 -35 36 50 c31 41 77 153 77
185 0 5 -52 9 -116 9 l-116 0 7 -37z"/>
<path d="M1150 1037 c0 -45 -38 -115 -81 -149 -24 -20 -52 -30 -88 -35 l-52
-6 3 -346 c3 -380 3 -377 64 -406 47 -22 807 -22 860 0 63 26 64 36 64 481 0
441 -1 448 -65 478 -28 14 -84 16 -369 16 l-336 0 0 -33z m307 -149 c6 -7 59
-145 118 -307 115 -313 117 -326 59 -326 -26 0 -30 6 -57 78 l-30 77 -122 0
-123 0 -18 -52 c-27 -85 -42 -108 -68 -108 -57 0 -55 14 49 298 132 358 129
352 158 352 14 0 29 -6 34 -12z"/>
<path d="M1416 714 c-15 -38 -76 -207 -76 -210 0 -2 38 -4 85 -4 47 0 85 2 85
5 0 8 -69 195 -78 211 -8 14 -10 14 -16 -2z"/>
<path d="M12 698 c-16 -16 -15 -97 3 -182 39 -185 176 -361 345 -445 116 -57
277 -88 318 -62 8 5 12 21 10 37 -3 28 -5 29 -85 40 -149 21 -241 64 -342 159
-97 92 -171 241 -171 346 l0 38 81 3 c65 2 84 7 93 21 8 12 8 22 0 35 -9 14
-29 17 -125 20 -81 2 -118 -1 -127 -10z"/>
</g>
</svg>
