<?xml version="1.0" encoding="UTF-8"?>
<svg xmlns="http://www.w3.org/2000/svg" xmlns:xlink="http://www.w3.org/1999/xlink" width="60px" height="68px" viewBox="0 0 60 67" version="1.1">
<g id="surface1">
<path style=" stroke:none;fill-rule:nonzero;fill:rgb(63.137255%,47.45098%,86.27451%);fill-opacity:1;" d="M 59.734375 19.832031 C 59.734375 18.71875 59.492188 17.734375 59.007812 16.886719 C 58.527344 16.054688 57.816406 15.355469 56.855469 14.808594 C 48.9375 10.273438 41.011719 5.757812 33.097656 1.222656 C 30.964844 0 28.894531 0.0429688 26.777344 1.285156 C 23.625 3.128906 7.847656 12.101562 3.144531 14.804688 C 1.210938 15.914062 0.265625 17.621094 0.265625 19.832031 C 0.261719 28.941406 0.265625 38.058594 0.261719 47.167969 C 0.261719 48.257812 0.496094 49.226562 0.957031 50.058594 C 1.433594 50.914062 2.160156 51.632812 3.144531 52.195312 C 7.847656 54.898438 23.625 63.871094 26.773438 65.714844 C 28.894531 66.957031 30.964844 67 33.097656 65.777344 C 41.011719 61.242188 48.9375 56.722656 56.855469 52.191406 C 57.839844 51.628906 58.566406 50.914062 59.042969 50.054688 C 59.503906 49.222656 59.738281 48.257812 59.738281 47.164062 C 59.738281 47.164062 59.738281 28.945312 59.734375 19.832031 "/>
<path style=" stroke:none;fill-rule:nonzero;fill:rgb(15.686275%,0%,40.784314%);fill-opacity:1;" d="M 30.089844 33.410156 L 0.957031 50.058594 C 1.433594 50.914062 2.160156 51.632812 3.144531 52.195312 C 7.847656 54.898438 23.625 63.871094 26.773438 65.714844 C 28.894531 66.957031 30.964844 67 33.097656 65.777344 C 41.011719 61.242188 48.9375 56.722656 56.855469 52.191406 C 57.839844 51.628906 58.566406 50.914062 59.042969 50.054688 Z M 30.089844 33.410156 "/>
<path style=" stroke:none;fill-rule:nonzero;fill:rgb(22.352941%,0%,56.862745%);fill-opacity:1;" d="M 59.734375 19.832031 C 59.734375 18.71875 59.492188 17.734375 59.007812 16.886719 L 30.089844 33.414062 L 59.042969 50.054688 C 59.503906 49.222656 59.738281 48.257812 59.738281 47.164062 C 59.738281 47.164062 59.738281 28.945312 59.734375 19.832031 "/>
<path style=" stroke:none;fill-rule:nonzero;fill:rgb(100%,100%,100%);fill-opacity:1;" d="M 47.246094 27.1875 L 47.246094 30.296875 L 50.378906 30.296875 L 50.378906 27.1875 L 51.945312 27.1875 L 51.945312 30.296875 L 55.082031 30.296875 L 55.082031 31.855469 L 51.945312 31.855469 L 51.945312 34.964844 L 55.082031 34.964844 L 55.082031 36.523438 L 51.945312 36.523438 L 51.945312 39.636719 L 50.378906 39.636719 L 50.378906 36.523438 L 47.246094 36.523438 L 47.246094 39.636719 L 45.675781 39.636719 L 45.675781 36.523438 L 42.539062 36.523438 L 42.539062 34.964844 L 45.675781 34.964844 L 45.675781 31.855469 L 42.539062 31.855469 L 42.539062 30.296875 L 45.675781 30.296875 L 45.675781 27.1875 Z M 50.378906 31.855469 L 47.246094 31.855469 L 47.246094 34.964844 L 50.378906 34.964844 Z M 50.378906 31.855469 "/>
<path style=" stroke:none;fill-rule:nonzero;fill:rgb(100%,100%,100%);fill-opacity:1;" d="M 30.15625 11.558594 C 38.332031 11.558594 45.472656 15.96875 49.296875 22.519531 L 49.261719 22.457031 L 39.636719 27.953125 C 37.742188 24.769531 34.269531 22.621094 30.28125 22.574219 L 30.15625 22.574219 C 24.074219 22.574219 19.148438 27.464844 19.148438 33.5 C 19.144531 35.402344 19.644531 37.273438 20.597656 38.921875 C 22.496094 42.207031 26.0625 44.425781 30.15625 44.425781 C 34.269531 44.425781 37.859375 42.179688 39.746094 38.855469 L 39.699219 38.9375 L 49.308594 44.460938 C 45.527344 50.957031 38.484375 55.351562 30.402344 55.4375 L 30.15625 55.441406 C 21.953125 55.441406 14.792969 51.007812 10.976562 44.417969 C 9.113281 41.203125 8.046875 37.476562 8.046875 33.5 C 8.046875 21.382812 17.945312 11.558594 30.15625 11.558594 Z M 30.15625 11.558594 "/>
</g>
</svg>
