<?xml version="1.0" encoding="UTF-8"?>
<svg xmlns="http://www.w3.org/2000/svg" xmlns:xlink="http://www.w3.org/1999/xlink" width="95px" height="60px" viewBox="0 0 95 60" version="1.1">
<g id="surface1">
<path style=" stroke:none;fill-rule:nonzero;fill:rgb(38.431373%,11.764706%,89.803922%);fill-opacity:1;" d="M 5.160156 30.550781 C 4.921875 30.292969 4.628906 30.089844 4.304688 29.945312 C 3.984375 29.800781 3.636719 29.730469 3.285156 29.730469 C 2.929688 29.722656 2.585938 29.800781 2.261719 29.933594 C 1.9375 30.078125 1.644531 30.285156 1.40625 30.542969 C 1.15625 30.792969 0.960938 31.089844 0.835938 31.414062 C 0.707031 31.75 0.640625 32.101562 0.640625 32.449219 C 0.632812 32.808594 0.699219 33.15625 0.835938 33.480469 C 0.96875 33.808594 1.164062 34.105469 1.410156 34.355469 C 1.898438 34.875 2.582031 35.164062 3.289062 35.152344 C 3.996094 35.15625 4.675781 34.867188 5.167969 34.355469 C 5.421875 34.109375 5.617188 33.816406 5.753906 33.488281 C 5.890625 33.160156 5.957031 32.8125 5.957031 32.457031 C 5.957031 32.101562 5.890625 31.75 5.753906 31.425781 C 5.613281 31.089844 5.417969 30.792969 5.160156 30.550781 Z M 36.597656 24.386719 C 36.558594 26.089844 36.640625 27.796875 36.835938 29.488281 L 36.746094 29.488281 C 36.535156 29.070312 36.070312 28.296875 35.359375 27.167969 L 18.230469 0 L 13.03125 0 L 13.03125 34.683594 L 17.03125 34.683594 L 17.03125 9.609375 C 17.074219 8.023438 17.007812 6.4375 16.84375 4.851562 L 16.992188 4.851562 C 17.277344 5.609375 17.644531 6.335938 18.082031 7.023438 L 35.675781 34.683594 L 40.59375 34.683594 L 40.59375 0 L 36.597656 0 Z M 67.6875 30.871094 L 53.566406 30.871094 L 53.566406 18.855469 L 65.921875 18.855469 L 65.921875 15.195312 L 53.566406 15.195312 L 53.566406 3.675781 L 66.824219 3.675781 L 66.824219 0 L 49.472656 0 L 49.472656 34.683594 L 67.667969 34.683594 Z M 70.746094 0 L 70.746094 3.675781 L 80.585938 3.675781 L 80.585938 34.683594 L 84.582031 34.683594 L 84.582031 3.675781 L 94.535156 3.675781 L 94.535156 0 Z M 31.582031 43.304688 C 30.582031 43.707031 29.683594 44.316406 28.9375 45.101562 C 28.171875 45.929688 27.570312 46.902344 27.175781 47.972656 C 26.789062 49.039062 26.613281 50.171875 26.660156 51.300781 C 26.585938 53.398438 27.304688 55.449219 28.6875 57.011719 C 29.378906 57.746094 30.21875 58.316406 31.152344 58.695312 C 32.082031 59.074219 33.082031 59.242188 34.082031 59.199219 C 35.585938 59.25 37.078125 58.929688 38.4375 58.261719 L 38.453125 56.496094 C 37.207031 57.230469 35.785156 57.59375 34.34375 57.558594 C 33.570312 57.589844 32.796875 57.449219 32.082031 57.15625 C 31.371094 56.859375 30.726562 56.40625 30.199219 55.828125 C 29.097656 54.535156 28.535156 52.867188 28.621094 51.167969 C 28.53125 49.367188 29.136719 47.605469 30.308594 46.257812 C 30.863281 45.632812 31.546875 45.144531 32.308594 44.8125 C 33.070312 44.488281 33.890625 44.328125 34.71875 44.347656 C 36.035156 44.324219 37.324219 44.652344 38.476562 45.300781 L 38.476562 43.394531 C 37.285156 42.910156 36.003906 42.679688 34.71875 42.726562 C 33.648438 42.710938 32.570312 42.898438 31.582031 43.304688 Z M 50.308594 48.738281 C 49.292969 47.65625 47.859375 47.082031 46.386719 47.160156 C 45.613281 47.121094 44.847656 47.25 44.125 47.53125 C 43.402344 47.8125 42.75 48.238281 42.195312 48.777344 C 41.652344 49.382812 41.242188 50.089844 40.96875 50.863281 C 40.699219 51.636719 40.585938 52.449219 40.640625 53.269531 C 40.5625 54.824219 41.097656 56.347656 42.117188 57.511719 C 42.628906 58.066406 43.246094 58.503906 43.9375 58.800781 C 44.628906 59.089844 45.371094 59.234375 46.113281 59.207031 C 46.875 59.226562 47.632812 59.082031 48.339844 58.785156 C 49.046875 58.492188 49.675781 58.042969 50.195312 57.472656 C 51.25 56.273438 51.792969 54.703125 51.710938 53.105469 C 51.800781 51.507812 51.296875 49.949219 50.308594 48.738281 Z M 48.933594 56.535156 C 48.261719 57.3125 47.273438 57.738281 46.25 57.679688 C 45.730469 57.703125 45.222656 57.605469 44.746094 57.40625 C 44.273438 57.203125 43.851562 56.898438 43.507812 56.503906 C 42.789062 55.601562 42.425781 54.464844 42.496094 53.304688 C 42.425781 52.117188 42.785156 50.9375 43.507812 49.996094 C 43.847656 49.601562 44.269531 49.292969 44.742188 49.078125 C 45.214844 48.871094 45.730469 48.777344 46.242188 48.796875 C 46.753906 48.769531 47.257812 48.867188 47.722656 49.074219 C 48.191406 49.277344 48.601562 49.589844 48.933594 49.984375 C 49.617188 50.933594 49.945312 52.101562 49.871094 53.277344 C 49.945312 54.429688 49.617188 55.589844 48.933594 56.535156 Z M 57.640625 47.996094 C 57.074219 48.5 56.660156 49.164062 56.457031 49.898438 L 56.457031 47.515625 L 54.578125 47.515625 L 54.578125 58.929688 L 56.457031 58.929688 L 56.457031 53.109375 C 56.398438 52.054688 56.667969 51 57.222656 50.105469 C 57.429688 49.777344 57.699219 49.503906 58.027344 49.316406 C 58.359375 49.125 58.726562 49.011719 59.101562 49.003906 C 59.582031 48.964844 60.066406 49.097656 60.472656 49.367188 L 60.472656 47.484375 C 60.125 47.371094 59.761719 47.316406 59.402344 47.332031 C 58.757812 47.324219 58.132812 47.558594 57.640625 47.996094 Z M 71.460938 52.707031 C 71.550781 51.257812 71.121094 49.832031 70.257812 48.675781 C 69.828125 48.191406 69.304688 47.804688 68.710938 47.554688 C 68.117188 47.300781 67.476562 47.1875 66.839844 47.226562 C 66.132812 47.203125 65.425781 47.347656 64.773438 47.636719 C 64.128906 47.925781 63.550781 48.355469 63.082031 48.90625 C 62.0625 50.105469 61.535156 51.65625 61.605469 53.238281 C 61.507812 54.816406 61.996094 56.382812 62.972656 57.609375 C 63.445312 58.132812 64.03125 58.542969 64.675781 58.816406 C 65.324219 59.089844 66.027344 59.207031 66.726562 59.175781 C 68.117188 59.242188 69.492188 58.863281 70.648438 58.089844 L 70.648438 56.371094 C 69.660156 57.183594 68.429688 57.636719 67.15625 57.648438 C 66.667969 57.679688 66.171875 57.605469 65.710938 57.421875 C 65.253906 57.238281 64.832031 56.972656 64.488281 56.617188 C 63.816406 55.796875 63.476562 54.75 63.535156 53.6875 L 71.476562 53.6875 Z M 63.519531 52.175781 C 63.617188 51.273438 64.007812 50.421875 64.621094 49.761719 C 65.179688 49.15625 65.96875 48.816406 66.789062 48.828125 C 67.175781 48.804688 67.5625 48.871094 67.921875 49.027344 C 68.28125 49.175781 68.597656 49.40625 68.855469 49.703125 C 69.378906 50.410156 69.644531 51.273438 69.605469 52.152344 Z M 63.519531 52.175781 "/>
</g>
</svg>
