<?xml version="1.0" encoding="UTF-8"?>
<svg xmlns="http://www.w3.org/2000/svg" xmlns:xlink="http://www.w3.org/1999/xlink" width="100px" height="29px" viewBox="0 0 99 29" version="1.1">
<g id="surface1">
<path style=" stroke:none;fill-rule:nonzero;fill:rgb(13.333333%,13.333333%,13.333333%);fill-opacity:1;" d="M 0.644531 22.5 L 0.644531 11.417969 L 14.402344 11.417969 L 14.402344 10.769531 L 0.644531 10.769531 L 0.644531 0.65625 L 15.269531 0.65625 L 15.269531 0.0078125 L 0 0.0078125 L 0 23.148438 L 15.398438 23.148438 L 15.398438 22.5 Z M 27.800781 6.492188 L 22.101562 14.042969 L 16.527344 6.492188 L 15.6875 6.492188 L 21.714844 14.527344 L 15.109375 23.148438 L 15.882812 23.148438 L 22.101562 15.011719 L 28.351562 23.148438 L 29.15625 23.148438 L 22.519531 14.527344 L 28.574219 6.492188 Z M 31.089844 28.851562 L 31.089844 18.480469 L 31.152344 18.480469 C 31.539062 19.992188 32.300781 21.210938 33.441406 22.128906 C 34.578125 23.046875 36.027344 23.503906 37.789062 23.503906 C 38.925781 23.503906 39.9375 23.273438 40.816406 22.808594 C 41.699219 22.34375 42.433594 21.710938 43.023438 20.914062 C 43.613281 20.113281 44.066406 19.183594 44.378906 18.125 C 44.6875 17.066406 44.84375 15.953125 44.84375 14.789062 C 44.84375 13.535156 44.683594 12.378906 44.363281 11.320312 C 44.039062 10.261719 43.570312 9.34375 42.960938 8.566406 C 42.347656 7.789062 41.605469 7.183594 40.738281 6.75 C 39.867188 6.316406 38.882812 6.101562 37.789062 6.101562 C 36.953125 6.101562 36.171875 6.226562 35.453125 6.476562 C 34.734375 6.722656 34.09375 7.074219 33.535156 7.527344 C 32.976562 7.984375 32.488281 8.527344 32.085938 9.132812 C 31.679688 9.746094 31.367188 10.421875 31.152344 11.15625 L 31.089844 11.15625 L 31.089844 6.492188 L 30.445312 6.492188 L 30.445312 28.851562 Z M 37.789062 22.890625 C 35.769531 22.890625 34.148438 22.191406 32.925781 20.796875 C 31.699219 19.40625 31.089844 17.402344 31.089844 14.785156 C 31.089844 13.707031 31.238281 12.679688 31.539062 11.707031 C 31.839844 10.734375 32.273438 9.882812 32.84375 9.148438 C 33.414062 8.414062 34.117188 7.832031 34.953125 7.398438 C 35.792969 6.964844 36.738281 6.75 37.789062 6.75 C 38.863281 6.75 39.804688 6.964844 40.609375 7.398438 C 41.414062 7.832031 42.078125 8.417969 42.605469 9.164062 C 43.132812 9.910156 43.527344 10.761719 43.796875 11.722656 C 44.066406 12.6875 44.199219 13.707031 44.199219 14.785156 C 44.199219 15.757812 44.078125 16.726562 43.828125 17.6875 C 43.582031 18.648438 43.203125 19.511719 42.6875 20.28125 C 42.171875 21.046875 41.511719 21.671875 40.703125 22.160156 C 39.898438 22.644531 38.925781 22.890625 37.789062 22.890625 Z M 48.386719 23.148438 L 48.386719 13.71875 C 48.386719 12.808594 48.515625 11.925781 48.773438 11.058594 C 49.03125 10.195312 49.429688 9.433594 49.96875 8.777344 C 50.503906 8.117188 51.1875 7.597656 52.011719 7.21875 C 52.839844 6.839844 53.824219 6.683594 54.960938 6.75 L 54.960938 6.101562 C 53.972656 6.082031 53.109375 6.1875 52.367188 6.425781 C 51.625 6.664062 50.988281 6.988281 50.449219 7.398438 C 49.914062 7.808594 49.484375 8.289062 49.160156 8.839844 C 48.839844 9.390625 48.601562 9.984375 48.453125 10.605469 L 48.386719 10.605469 L 48.386719 6.492188 L 47.746094 6.492188 L 47.746094 23.148438 Z M 55.765625 14.949219 L 69.617188 14.949219 C 69.660156 13.804688 69.550781 12.703125 69.28125 11.644531 C 69.011719 10.585938 68.582031 9.644531 67.992188 8.824219 C 67.402344 8.003906 66.640625 7.34375 65.703125 6.847656 C 64.769531 6.351562 63.660156 6.101562 62.371094 6.101562 C 61.445312 6.101562 60.542969 6.296875 59.664062 6.683594 C 58.785156 7.074219 58.011719 7.640625 57.34375 8.386719 C 56.679688 9.132812 56.140625 10.042969 55.734375 11.125 C 55.324219 12.207031 55.121094 13.4375 55.121094 14.820312 C 55.121094 16.050781 55.261719 17.203125 55.539062 18.269531 C 55.820312 19.339844 56.25 20.269531 56.828125 21.058594 C 57.410156 21.847656 58.15625 22.457031 59.066406 22.890625 C 59.980469 23.320312 61.082031 23.527344 62.371094 23.503906 C 64.261719 23.503906 65.851562 22.96875 67.136719 21.902344 C 68.425781 20.832031 69.1875 19.324219 69.425781 17.378906 L 68.78125 17.378906 C 68.503906 19.214844 67.789062 20.59375 66.640625 21.511719 C 65.488281 22.429688 64.046875 22.890625 62.304688 22.890625 C 61.125 22.890625 60.125 22.683594 59.308594 22.273438 C 58.492188 21.863281 57.828125 21.300781 57.3125 20.589844 C 56.796875 19.875 56.414062 19.039062 56.167969 18.078125 C 55.921875 17.113281 55.789062 16.074219 55.765625 14.949219 Z M 68.972656 14.300781 L 55.765625 14.300781 C 55.832031 13.132812 56.046875 12.085938 56.410156 11.15625 C 56.777344 10.226562 57.253906 9.433594 57.84375 8.777344 C 58.433594 8.117188 59.121094 7.613281 59.90625 7.269531 C 60.691406 6.921875 61.53125 6.75 62.433594 6.75 C 63.507812 6.75 64.453125 6.949219 65.269531 7.347656 C 66.085938 7.75 66.769531 8.292969 67.316406 8.984375 C 67.863281 9.675781 68.277344 10.480469 68.554688 11.398438 C 68.835938 12.320312 68.972656 13.285156 68.972656 14.300781 Z M 82.988281 11.417969 L 83.632812 11.417969 C 83.632812 9.558594 83.097656 8.207031 82.023438 7.367188 C 80.949219 6.523438 79.488281 6.101562 77.640625 6.101562 C 76.609375 6.101562 75.738281 6.230469 75.03125 6.492188 C 74.324219 6.75 73.742188 7.085938 73.292969 7.496094 C 72.839844 7.90625 72.519531 8.359375 72.324219 8.855469 C 72.132812 9.351562 72.035156 9.828125 72.035156 10.28125 C 72.035156 11.191406 72.195312 11.914062 72.519531 12.453125 C 72.839844 12.992188 73.34375 13.414062 74.03125 13.71875 C 74.503906 13.933594 75.042969 14.128906 75.644531 14.300781 C 76.246094 14.472656 76.941406 14.65625 77.738281 14.851562 C 78.445312 15.023438 79.144531 15.199219 79.832031 15.371094 C 80.519531 15.542969 81.125 15.773438 81.652344 16.066406 C 82.179688 16.359375 82.605469 16.730469 82.941406 17.183594 C 83.273438 17.640625 83.441406 18.234375 83.441406 18.96875 C 83.441406 19.679688 83.273438 20.285156 82.941406 20.78125 C 82.609375 21.277344 82.175781 21.691406 81.667969 21.996094 C 81.152344 22.3125 80.578125 22.539062 79.945312 22.679688 C 79.3125 22.820312 78.691406 22.890625 78.09375 22.890625 C 76.136719 22.890625 74.640625 22.453125 73.597656 21.578125 C 72.554688 20.703125 72.035156 19.324219 72.035156 17.445312 L 71.390625 17.445312 C 71.390625 19.539062 71.953125 21.074219 73.082031 22.046875 C 74.210938 23.019531 75.878906 23.503906 78.09375 23.503906 C 78.800781 23.503906 79.515625 23.421875 80.234375 23.261719 C 80.953125 23.097656 81.597656 22.835938 82.167969 22.46875 C 82.730469 22.105469 83.207031 21.617188 83.550781 21.042969 C 83.90625 20.457031 84.085938 19.746094 84.085938 18.902344 C 84.085938 18.101562 83.929688 17.457031 83.617188 16.957031 C 83.304688 16.460938 82.898438 16.050781 82.390625 15.726562 C 81.886719 15.402344 81.320312 15.148438 80.683594 14.964844 C 80.046875 14.78125 79.410156 14.601562 78.769531 14.429688 C 77.980469 14.222656 77.191406 14.015625 76.398438 13.816406 C 75.722656 13.640625 75.097656 13.4375 74.515625 13.199219 C 73.957031 12.960938 73.511719 12.621094 73.179688 12.179688 C 72.847656 11.734375 72.679688 11.101562 72.679688 10.28125 C 72.679688 10.132812 72.722656 9.859375 72.808594 9.472656 C 72.894531 9.082031 73.097656 8.6875 73.421875 8.289062 C 73.742188 7.890625 74.238281 7.53125 74.902344 7.21875 C 75.566406 6.90625 76.480469 6.75 77.640625 6.75 C 78.433594 6.75 79.160156 6.835938 79.816406 7.007812 C 80.46875 7.183594 81.035156 7.457031 81.507812 7.835938 C 81.980469 8.214844 82.34375 8.695312 82.601562 9.277344 C 82.859375 9.859375 82.988281 10.574219 82.988281 11.417969 Z M 97.90625 11.417969 L 98.550781 11.417969 C 98.550781 9.558594 98.011719 8.207031 96.9375 7.367188 C 95.863281 6.523438 94.402344 6.101562 92.558594 6.101562 C 91.527344 6.101562 90.65625 6.230469 89.949219 6.492188 C 89.238281 6.75 88.660156 7.085938 88.207031 7.496094 C 87.757812 7.90625 87.433594 8.359375 87.242188 8.855469 C 87.046875 9.351562 86.953125 9.828125 86.953125 10.28125 C 86.953125 11.191406 87.113281 11.914062 87.433594 12.453125 C 87.757812 12.992188 88.261719 13.414062 88.949219 13.71875 C 89.421875 13.933594 89.957031 14.128906 90.558594 14.300781 C 91.160156 14.472656 91.859375 14.65625 92.652344 14.851562 C 93.363281 15.023438 94.058594 15.199219 94.746094 15.371094 C 95.433594 15.542969 96.042969 15.773438 96.566406 16.066406 C 97.09375 16.359375 97.523438 16.730469 97.855469 17.183594 C 98.1875 17.640625 98.355469 18.234375 98.355469 18.96875 C 98.355469 19.679688 98.1875 20.285156 97.855469 20.78125 C 97.527344 21.277344 97.089844 21.691406 96.582031 21.996094 C 96.066406 22.3125 95.492188 22.539062 94.859375 22.679688 C 94.226562 22.820312 93.609375 22.890625 93.007812 22.890625 C 91.054688 22.890625 89.554688 22.453125 88.515625 21.578125 C 87.472656 20.703125 86.953125 19.324219 86.953125 17.445312 L 86.308594 17.445312 C 86.308594 19.539062 86.871094 21.074219 88 22.046875 C 89.125 23.019531 90.796875 23.503906 93.007812 23.503906 C 93.714844 23.503906 94.429688 23.421875 95.148438 23.261719 C 95.871094 23.097656 96.515625 22.835938 97.082031 22.46875 C 97.648438 22.105469 98.121094 21.617188 98.46875 21.042969 C 98.824219 20.457031 99 19.746094 99 18.902344 C 99 18.101562 98.84375 17.457031 98.53125 16.957031 C 98.222656 16.460938 97.8125 16.050781 97.308594 15.726562 C 96.804688 15.402344 96.234375 15.148438 95.601562 14.964844 C 94.964844 14.78125 94.324219 14.601562 93.683594 14.429688 C 92.894531 14.222656 92.105469 14.015625 91.316406 13.816406 C 90.640625 13.640625 90.011719 13.4375 89.433594 13.199219 C 88.875 12.960938 88.425781 12.621094 88.09375 12.179688 C 87.761719 11.734375 87.59375 11.101562 87.59375 10.28125 C 87.59375 10.132812 87.636719 9.859375 87.722656 9.472656 C 87.808594 9.082031 88.015625 8.6875 88.335938 8.289062 C 88.660156 7.890625 89.152344 7.53125 89.816406 7.21875 C 90.484375 6.90625 91.398438 6.75 92.558594 6.75 C 93.351562 6.75 94.078125 6.835938 94.730469 7.007812 C 95.386719 7.183594 95.949219 7.457031 96.421875 7.835938 C 96.894531 8.214844 97.261719 8.695312 97.519531 9.277344 C 97.777344 9.859375 97.90625 10.574219 97.90625 11.417969 Z M 97.90625 11.417969 "/>
</g>
</svg>
