<?xml version="1.0" encoding="utf-8"?>
<svg xmlns="http://www.w3.org/2000/svg" xmlns:xlink="http://www.w3.org/1999/xlink" width="94.752" zoomAndPan="magnify" viewBox="71.063995 66.825 94.752 58.725006" height="58.725006" preserveAspectRatio="xMidYMid meet" version="1.0">
  <defs>
    <clipPath id="a3b3c067cc">
      <path d="M 75.140625 74.855469 L 161.175781 74.855469 L 161.175781 127.226562 L 75.140625 127.226562 Z M 75.140625 74.855469 " clip-rule="nonzero" />
    </clipPath>
    <clipPath id="f172bd6d57">
      <path d="M 111.011719 111.953125 L 146.082031 111.953125 L 146.082031 122.429688 L 111.011719 122.429688 Z M 111.011719 111.953125 " clip-rule="nonzero" />
    </clipPath>
  </defs>
  <g clip-path="url(#a3b3c067cc)">
    <path fill="#eceff1" d="M 95.449219 88.515625 L 111.671875 88.515625 L 111.671875 89.816406 L 96.9375 89.816406 L 96.9375 99.609375 L 110.792969 99.609375 L 110.792969 100.914062 L 96.9375 100.914062 L 96.9375 111.664062 L 111.839844 111.664062 L 111.839844 112.964844 L 95.449219 112.964844 Z M 113.125 88.515625 L 114.847656 88.515625 L 122.484375 99.269531 L 130.289062 88.515625 L 140.910156 74.855469 L 123.464844 100.398438 L 132.453125 112.964844 L 130.660156 112.964844 L 122.484375 101.527344 L 114.273438 112.964844 L 112.515625 112.964844 L 121.570312 100.398438 Z M 133.097656 89.816406 L 133.097656 88.515625 L 151.582031 88.515625 L 151.582031 89.816406 L 143.066406 89.816406 L 143.066406 112.964844 L 141.578125 112.964844 L 141.578125 89.816406 Z M 75.15625 88.515625 L 77.015625 88.515625 L 102.644531 127.226562 L 92.054688 112.964844 L 76.710938 90.367188 L 76.644531 112.964844 L 75.15625 112.964844 Z M 151.429688 111.273438 C 151.128906 111.273438 150.898438 111.035156 150.898438 110.726562 C 150.898438 110.421875 151.128906 110.183594 151.429688 110.183594 C 151.738281 110.183594 151.964844 110.421875 151.964844 110.726562 C 151.964844 111.035156 151.738281 111.273438 151.429688 111.273438 Z M 152.890625 109.839844 L 153.6875 109.839844 C 153.699219 110.273438 154.015625 110.566406 154.476562 110.566406 C 154.992188 110.566406 155.285156 110.253906 155.285156 109.664062 L 155.285156 105.9375 L 156.097656 105.9375 L 156.097656 109.667969 C 156.097656 110.726562 155.488281 111.335938 154.484375 111.335938 C 153.539062 111.335938 152.890625 110.746094 152.890625 109.839844 Z M 157.15625 109.792969 L 157.960938 109.792969 C 158.027344 110.292969 158.511719 110.609375 159.210938 110.609375 C 159.863281 110.609375 160.339844 110.269531 160.339844 109.804688 C 160.339844 109.402344 160.035156 109.160156 159.34375 108.996094 L 158.671875 108.828125 C 157.726562 108.609375 157.296875 108.148438 157.296875 107.371094 C 157.296875 106.433594 158.058594 105.808594 159.195312 105.808594 C 160.257812 105.808594 161.027344 106.433594 161.074219 107.320312 L 160.289062 107.320312 C 160.210938 106.835938 159.792969 106.53125 159.183594 106.53125 C 158.542969 106.53125 158.117188 106.84375 158.117188 107.316406 C 158.117188 107.695312 158.394531 107.910156 159.074219 108.070312 L 159.648438 108.210938 C 160.71875 108.464844 161.160156 108.90625 161.160156 109.695312 C 161.160156 110.703125 160.386719 111.335938 159.148438 111.335938 C 157.992188 111.335938 157.214844 110.734375 157.15625 109.792969 Z M 157.15625 109.792969 " fill-opacity="1" fill-rule="nonzero" />
  </g>
  <g clip-path="url(#f172bd6d57)">
    <path fill="#eceff1" d="M 80.355469 84.164062 L 96.578125 84.164062 L 96.578125 85.464844 L 81.839844 85.464844 L 81.839844 95.257812 L 95.699219 95.257812 L 95.699219 96.558594 L 81.839844 96.558594 L 81.839844 107.3125 L 96.746094 107.3125 L 96.746094 108.613281 L 80.355469 108.613281 Z M 98.03125 84.164062 L 99.753906 84.164062 L 107.390625 94.914062 L 115.195312 84.164062 L 125.816406 70.503906 L 108.371094 96.046875 L 117.359375 108.613281 L 115.566406 108.613281 L 107.390625 97.175781 L 99.179688 108.613281 L 97.421875 108.613281 L 106.476562 96.046875 Z M 118.003906 85.464844 L 118.003906 84.164062 L 136.488281 84.164062 L 136.488281 85.464844 L 127.972656 85.464844 L 127.972656 108.613281 L 126.484375 108.613281 L 126.484375 85.464844 Z M 60.0625 84.164062 L 61.921875 84.164062 L 87.550781 122.875 L 76.960938 108.613281 L 61.617188 86.011719 L 61.550781 108.613281 L 60.0625 108.613281 Z M 136.335938 106.921875 C 136.035156 106.921875 135.804688 106.683594 135.804688 106.375 C 135.804688 106.066406 136.035156 105.832031 136.335938 105.832031 C 136.644531 105.832031 136.871094 106.066406 136.871094 106.375 C 136.871094 106.683594 136.644531 106.921875 136.335938 106.921875 Z M 137.796875 105.488281 L 138.59375 105.488281 C 138.605469 105.921875 138.921875 106.214844 139.382812 106.214844 C 139.898438 106.214844 140.191406 105.902344 140.191406 105.3125 L 140.191406 101.585938 L 141.003906 101.585938 L 141.003906 105.316406 C 141.003906 106.375 140.394531 106.984375 139.390625 106.984375 C 138.445312 106.984375 137.796875 106.394531 137.796875 105.488281 Z M 142.0625 105.4375 L 142.867188 105.4375 C 142.933594 105.941406 143.417969 106.257812 144.117188 106.257812 C 144.769531 106.257812 145.246094 105.917969 145.246094 105.453125 C 145.246094 105.050781 144.941406 104.808594 144.25 104.640625 L 143.578125 104.476562 C 142.632812 104.257812 142.203125 103.792969 142.203125 103.019531 C 142.203125 102.082031 142.964844 101.457031 144.101562 101.457031 C 145.164062 101.457031 145.933594 102.082031 145.980469 102.96875 L 145.195312 102.96875 C 145.117188 102.484375 144.699219 102.179688 144.089844 102.179688 C 143.449219 102.179688 143.023438 102.492188 143.023438 102.964844 C 143.023438 103.34375 143.300781 103.558594 143.980469 103.71875 L 144.554688 103.859375 C 145.625 104.113281 146.066406 104.550781 146.066406 105.34375 C 146.066406 106.351562 145.292969 106.984375 144.054688 106.984375 C 142.898438 106.984375 142.121094 106.382812 142.0625 105.4375 Z M 142.0625 105.4375 " fill-opacity="1" fill-rule="nonzero" />
  </g>
</svg>