<?xml version="1.0" encoding="UTF-8"?>
<svg xmlns="http://www.w3.org/2000/svg" xmlns:xlink="http://www.w3.org/1999/xlink" width="100px" height="28px" viewBox="0 0 98 28" version="1.1">
<g id="surface1">
<path style=" stroke:none;fill-rule:nonzero;fill:rgb(51.372549%,80.392157%,16.078431%);fill-opacity:1;" d="M 90.160156 9.964844 C 89.921875 9.964844 89.691406 10.015625 89.484375 10.132812 L 83 13.910156 C 82.582031 14.15625 82.324219 14.617188 82.324219 15.105469 L 82.324219 22.652344 C 82.324219 23.140625 82.582031 23.601562 83 23.847656 L 84.695312 24.832031 C 85.515625 25.242188 85.820312 25.234375 86.195312 25.234375 C 87.414062 25.234375 88.109375 24.488281 88.109375 23.191406 L 88.109375 15.746094 C 88.109375 15.640625 88.019531 15.566406 87.917969 15.566406 L 87.105469 15.566406 C 87 15.566406 86.910156 15.640625 86.910156 15.746094 L 86.910156 23.191406 C 86.910156 23.769531 86.316406 24.347656 85.355469 23.859375 L 83.59375 22.816406 C 83.53125 22.785156 83.480469 22.722656 83.480469 22.652344 L 83.480469 15.105469 C 83.480469 15.035156 83.527344 14.960938 83.59375 14.925781 L 90.066406 11.160156 C 90.125 11.125 90.199219 11.125 90.257812 11.160156 L 96.730469 14.925781 C 96.792969 14.964844 96.839844 15.035156 96.839844 15.105469 L 96.839844 22.652344 C 96.839844 22.722656 96.804688 22.796875 96.742188 22.832031 L 90.257812 26.597656 C 90.203125 26.628906 90.125 26.628906 90.066406 26.597656 L 88.398438 25.597656 C 88.347656 25.570312 88.285156 25.570312 88.234375 25.597656 C 87.773438 25.859375 87.6875 25.890625 87.253906 26.042969 C 87.148438 26.078125 86.988281 26.136719 87.308594 26.320312 L 89.484375 27.613281 C 89.691406 27.730469 89.925781 27.792969 90.160156 27.792969 C 90.398438 27.792969 90.628906 27.730469 90.835938 27.613281 L 97.324219 23.847656 C 97.742188 23.601562 97.996094 23.140625 97.996094 22.652344 L 97.996094 15.105469 C 97.996094 14.617188 97.742188 14.15625 97.324219 13.914062 L 90.835938 10.132812 C 90.632812 10.015625 90.398438 9.964844 90.160156 9.964844 Z M 90.160156 9.964844 "/>
<path style=" stroke:none;fill-rule:nonzero;fill:rgb(51.372549%,80.392157%,16.078431%);fill-opacity:1;" d="M 91.894531 15.355469 C 90.050781 15.355469 88.949219 16.148438 88.949219 17.46875 C 88.949219 18.898438 90.039062 19.292969 91.8125 19.46875 C 93.933594 19.679688 94.101562 19.992188 94.101562 20.414062 C 94.101562 21.144531 93.523438 21.457031 92.15625 21.457031 C 90.445312 21.457031 90.066406 21.023438 89.941406 20.164062 C 89.925781 20.070312 89.855469 19.996094 89.761719 19.996094 L 88.921875 19.996094 C 88.816406 19.996094 88.730469 20.085938 88.730469 20.191406 C 88.730469 21.292969 89.324219 22.597656 92.15625 22.597656 C 94.210938 22.597656 95.394531 21.78125 95.394531 20.359375 C 95.394531 18.949219 94.4375 18.566406 92.445312 18.300781 C 90.433594 18.035156 90.242188 17.902344 90.242188 17.425781 C 90.242188 17.035156 90.40625 16.511719 91.894531 16.511719 C 93.226562 16.511719 93.71875 16.800781 93.921875 17.707031 C 93.9375 17.789062 94.011719 17.859375 94.101562 17.859375 L 94.941406 17.859375 C 94.992188 17.859375 95.042969 17.824219 95.078125 17.789062 C 95.113281 17.75 95.136719 17.703125 95.132812 17.648438 C 95.003906 16.089844 93.972656 15.355469 91.894531 15.355469 Z M 91.894531 15.355469 "/>
<path style=" stroke:none;fill-rule:nonzero;fill:rgb(25.098039%,25.490196%,21.568627%);fill-opacity:1;" d="M 52.027344 0.0742188 C 51.957031 0.0742188 51.882812 0.09375 51.820312 0.128906 C 51.695312 0.203125 51.613281 0.34375 51.613281 0.492188 L 51.613281 11.121094 C 51.613281 11.222656 51.566406 11.316406 51.476562 11.371094 C 51.386719 11.421875 51.277344 11.421875 51.1875 11.371094 L 49.464844 10.371094 C 49.210938 10.21875 48.894531 10.21875 48.640625 10.371094 L 41.769531 14.371094 C 41.511719 14.519531 41.355469 14.808594 41.355469 15.105469 L 41.355469 23.109375 C 41.355469 23.410156 41.511719 23.683594 41.769531 23.832031 L 48.640625 27.832031 C 48.894531 27.984375 49.210938 27.984375 49.464844 27.832031 L 56.339844 23.832031 C 56.59375 23.683594 56.75 23.40625 56.75 23.109375 L 56.75 3.160156 C 56.75 2.851562 56.589844 2.570312 56.324219 2.421875 L 52.234375 0.117188 C 52.171875 0.078125 52.097656 0.0742188 52.027344 0.0742188 Z M 7.820312 10.0625 C 7.691406 10.070312 7.566406 10.09375 7.449219 10.160156 L 0.578125 14.164062 C 0.320312 14.3125 0.164062 14.585938 0.164062 14.882812 L 0.179688 25.625 C 0.179688 25.773438 0.253906 25.914062 0.382812 25.984375 C 0.511719 26.0625 0.671875 26.0625 0.796875 25.984375 L 4.875 23.625 C 5.132812 23.46875 5.300781 23.199219 5.300781 22.902344 L 5.300781 17.886719 C 5.300781 17.585938 5.457031 17.3125 5.714844 17.164062 L 7.449219 16.148438 C 7.574219 16.074219 7.71875 16.035156 7.863281 16.039062 C 8.003906 16.039062 8.148438 16.074219 8.273438 16.148438 L 10.011719 17.164062 C 10.265625 17.3125 10.425781 17.585938 10.425781 17.886719 L 10.425781 22.902344 C 10.425781 23.199219 10.59375 23.472656 10.851562 23.625 L 14.925781 25.984375 C 15.054688 26.0625 15.214844 26.0625 15.339844 25.984375 C 15.46875 25.910156 15.546875 25.773438 15.546875 25.625 L 15.558594 14.882812 C 15.5625 14.585938 15.402344 14.308594 15.148438 14.164062 L 8.273438 10.160156 C 8.160156 10.09375 8.035156 10.070312 7.902344 10.0625 Z M 69.574219 10.160156 C 69.429688 10.160156 69.289062 10.199219 69.160156 10.273438 L 62.289062 14.273438 C 62.03125 14.421875 61.875 14.699219 61.875 14.996094 L 61.875 23 C 61.875 23.300781 62.042969 23.574219 62.300781 23.722656 L 69.117188 27.640625 C 69.371094 27.785156 69.675781 27.796875 69.929688 27.652344 L 74.0625 25.332031 C 74.191406 25.257812 74.28125 25.121094 74.28125 24.972656 C 74.285156 24.820312 74.203125 24.683594 74.074219 24.609375 L 67.164062 20.609375 C 67.03125 20.535156 66.941406 20.382812 66.941406 20.234375 L 66.941406 17.734375 C 66.941406 17.582031 67.035156 17.445312 67.164062 17.371094 L 69.3125 16.121094 C 69.4375 16.046875 69.597656 16.046875 69.722656 16.121094 L 71.871094 17.371094 C 72 17.445312 72.078125 17.582031 72.078125 17.734375 L 72.078125 19.707031 C 72.078125 19.855469 72.15625 19.992188 72.285156 20.066406 C 72.414062 20.140625 72.570312 20.140625 72.699219 20.066406 L 76.816406 17.648438 C 77.070312 17.5 77.230469 17.226562 77.230469 16.925781 L 77.230469 14.996094 C 77.230469 14.699219 77.074219 14.421875 76.816406 14.273438 L 69.984375 10.273438 C 69.859375 10.199219 69.71875 10.160156 69.574219 10.160156 Z M 49.023438 16.136719 C 49.0625 16.136719 49.101562 16.144531 49.136719 16.164062 L 51.492188 17.539062 C 51.554688 17.574219 51.601562 17.644531 51.601562 17.71875 L 51.601562 20.46875 C 51.601562 20.542969 51.554688 20.613281 51.492188 20.652344 L 49.136719 22.027344 C 49.070312 22.0625 48.992188 22.0625 48.929688 22.027344 L 46.574219 20.652344 C 46.511719 20.613281 46.464844 20.542969 46.464844 20.46875 L 46.464844 17.71875 C 46.464844 17.644531 46.511719 17.574219 46.574219 17.539062 L 48.929688 16.164062 C 48.957031 16.144531 48.992188 16.136719 49.027344 16.136719 Z M 49.023438 16.136719 "/>
<path style=" stroke:none;fill-rule:nonzero;fill:rgb(51.372549%,80.392157%,16.078431%);fill-opacity:1;" d="M 28.464844 10.117188 C 28.320312 10.117188 28.179688 10.15625 28.050781 10.230469 L 21.179688 14.21875 C 20.921875 14.367188 20.765625 14.65625 20.765625 14.953125 L 20.765625 22.957031 C 20.765625 23.257812 20.921875 23.53125 21.179688 23.679688 L 28.050781 27.679688 C 28.308594 27.832031 28.621094 27.832031 28.878906 27.679688 L 35.75 23.679688 C 36.003906 23.53125 36.164062 23.253906 36.164062 22.957031 L 36.164062 14.953125 C 36.164062 14.65625 36.007812 14.367188 35.75 14.21875 L 28.878906 10.230469 C 28.753906 10.15625 28.609375 10.117188 28.464844 10.117188 Z M 69.558594 17.261719 C 69.53125 17.261719 69.5 17.261719 69.476562 17.273438 L 68.152344 18.050781 C 68.105469 18.082031 68.074219 18.132812 68.070312 18.191406 L 68.070312 19.71875 C 68.070312 19.777344 68.105469 19.828125 68.152344 19.859375 L 69.476562 20.621094 C 69.527344 20.652344 69.578125 20.652344 69.628906 20.621094 L 70.949219 19.859375 C 71 19.832031 71.03125 19.777344 71.03125 19.71875 L 71.03125 18.191406 C 71.03125 18.132812 71 18.082031 70.949219 18.050781 L 69.628906 17.273438 C 69.601562 17.261719 69.585938 17.261719 69.558594 17.261719 Z M 69.558594 17.261719 "/>
</g>
</svg>
